<?xml version="1.0" encoding="UTF-8"?>
<svg xmlns="http://www.w3.org/2000/svg" viewBox="0 0 768 1024" width="768" height="1024" role="img" aria-labelledby="visual-title visual-description" focusable="false" data-original-visual="true" data-kind="hero">
  <title id="visual-title">Killa Mayu</title>
  <desc id="visual-description">Original hero portrait for Killa Mayu from Tawantinsuyu: The Split Sun.</desc>
  <defs>
    <linearGradient id="background-gradient" x1="0" y1="0" x2="1" y2="1">
      <stop offset="0%" stop-color="#294c60"/>
      <stop offset="56%" stop-color="#071018"/>
      <stop offset="100%" stop-color="#8b5e3c"/>
    </linearGradient>
    <radialGradient id="core-gradient" cx="50%" cy="45%" r="58%">
      <stop offset="0%" stop-color="#ffffff" stop-opacity="0.92"/>
      <stop offset="36%" stop-color="#e9c46a" stop-opacity="0.82"/>
      <stop offset="100%" stop-color="#7b2cbf" stop-opacity="0.08"/>
    </radialGradient>
    <linearGradient id="subject-gradient" x1="0" y1="0" x2="1" y2="1">
      <stop offset="0%" stop-color="#7b2cbf"/>
      <stop offset="100%" stop-color="#e9c46a"/>
    </linearGradient>
    <linearGradient id="caption-gradient" x1="0" y1="0" x2="0" y2="1">
      <stop offset="0%" stop-color="#071018" stop-opacity="0"/>
      <stop offset="34%" stop-color="#071018" stop-opacity="0.82"/>
      <stop offset="100%" stop-color="#071018"/>
    </linearGradient>
  </defs>
  <rect width="768" height="1024" fill="url(#background-gradient)"/>
  <g aria-hidden="true">
    <circle cx="115.29" cy="667.2" r="2.54" fill="#7b2cbf" opacity="0.29"/>
    <circle cx="228.9" cy="153.95" r="1.39" fill="#e9c46a" opacity="0.25"/>
    <circle cx="120.67" cy="1003.6" r="2.64" fill="#e9c46a" opacity="0.58"/>
    <circle cx="97.91" cy="355" r="2.3" fill="#7b2cbf" opacity="0.5"/>
    <circle cx="344.62" cy="511.73" r="2.68" fill="#e9c46a" opacity="0.25"/>
    <circle cx="693.12" cy="203.15" r="1.09" fill="#e9c46a" opacity="0.64"/>
    <circle cx="352.5" cy="185.08" r="1.54" fill="#7b2cbf" opacity="0.41"/>
    <circle cx="511.31" cy="126.49" r="1.94" fill="#e9c46a" opacity="0.59"/>
    <circle cx="547.08" cy="593.42" r="2.72" fill="#e9c46a" opacity="0.23"/>
    <circle cx="626.35" cy="286.07" r="2.06" fill="#7b2cbf" opacity="0.43"/>
    <circle cx="541.16" cy="665.65" r="2.53" fill="#e9c46a" opacity="0.23"/>
    <circle cx="429.23" cy="124.02" r="2.51" fill="#e9c46a" opacity="0.7"/>
    <circle cx="82.82" cy="588.49" r="1.05" fill="#7b2cbf" opacity="0.28"/>
    <circle cx="612.96" cy="394.3" r="2.88" fill="#e9c46a" opacity="0.51"/>
    <circle cx="697.67" cy="695.84" r="2.55" fill="#e9c46a" opacity="0.34"/>
    <circle cx="237.96" cy="240.37" r="1.27" fill="#7b2cbf" opacity="0.42"/>
    <circle cx="578.55" cy="292.08" r="2.89" fill="#e9c46a" opacity="0.33"/>
    <circle cx="356.06" cy="779.82" r="1.86" fill="#e9c46a" opacity="0.7"/>
    <circle cx="402.2" cy="219.52" r="2.35" fill="#7b2cbf" opacity="0.25"/>
    <circle cx="117.92" cy="589.21" r="1.8" fill="#e9c46a" opacity="0.71"/>
    <circle cx="582.71" cy="512.79" r="1.15" fill="#e9c46a" opacity="0.39"/>
    <circle cx="611.38" cy="146.57" r="2.49" fill="#7b2cbf" opacity="0.24"/>
    <circle cx="98.18" cy="546.76" r="1.2" fill="#e9c46a" opacity="0.6"/>
    <circle cx="578.99" cy="494.7" r="1.54" fill="#e9c46a" opacity="0.3"/>
    <circle cx="545.11" cy="161.56" r="2.71" fill="#7b2cbf" opacity="0.69"/>
    <circle cx="600.73" cy="105.15" r="2.77" fill="#e9c46a" opacity="0.62"/>
    <circle cx="691.33" cy="355.91" r="1.14" fill="#e9c46a" opacity="0.28"/>
    <circle cx="292.59" cy="564.46" r="1.46" fill="#7b2cbf" opacity="0.62"/>
    <circle cx="74.51" cy="282.23" r="1.75" fill="#e9c46a" opacity="0.54"/>
    <circle cx="173.03" cy="395.13" r="2.4" fill="#e9c46a" opacity="0.31"/>
  </g>
  <g aria-hidden="true" opacity="0.74">
    <path d="M 0 -102.4 L -48.87 1126.4" stroke="#7b2cbf" stroke-width="8.79" opacity="0.21"/>
    <path d="M 64 -102.4 L 73.24 1126.4" stroke="#e9c46a" stroke-width="7.74" opacity="0.39"/>
    <path d="M 128 -102.4 L 159.03 1126.4" stroke="#e9c46a" stroke-width="9.96" opacity="0.33"/>
    <path d="M 192 -102.4 L 147.51 1126.4" stroke="#7b2cbf" stroke-width="3.45" opacity="0.21"/>
    <path d="M 256 -102.4 L 282.98 1126.4" stroke="#e9c46a" stroke-width="7.31" opacity="0.17"/>
    <path d="M 320 -102.4 L 351.63 1126.4" stroke="#e9c46a" stroke-width="2.33" opacity="0.13"/>
    <path d="M 384 -102.4 L 357.24 1126.4" stroke="#7b2cbf" stroke-width="8.33" opacity="0.35"/>
    <path d="M 448 -102.4 L 465.23 1126.4" stroke="#e9c46a" stroke-width="7.07" opacity="0.26"/>
    <path d="M 512 -102.4 L 489.15 1126.4" stroke="#e9c46a" stroke-width="8.15" opacity="0.3"/>
    <path d="M 576 -102.4 L 618.48 1126.4" stroke="#7b2cbf" stroke-width="9.93" opacity="0.26"/>
    <path d="M 640 -102.4 L 659.32 1126.4" stroke="#e9c46a" stroke-width="9.6" opacity="0.12"/>
    <path d="M 704 -102.4 L 715.44 1126.4" stroke="#e9c46a" stroke-width="8.73" opacity="0.26"/>
    <path d="M 768 -102.4 L 723.71 1126.4" stroke="#7b2cbf" stroke-width="4.19" opacity="0.14"/>
  </g>
  <g aria-hidden="true">
    <circle cx="363.09" cy="313.24" r="161.27" fill="none" stroke="#7b2cbf" stroke-width="5" opacity="0.38"/>
    <circle cx="363.09" cy="313.24" r="84.88" fill="url(#subject-gradient)" stroke="#e9c46a" stroke-width="5"/>
    <path d="M 119.2 716.8 Q 167.98 491.52 363.09 467.75 Q 558.2 491.52 606.98 716.8 Z" fill="url(#subject-gradient)" stroke="#e9c46a" stroke-width="6"/>
    <path d="M 140.37 624.64 L 601.17 368.64" stroke="#7b2cbf" stroke-width="14" stroke-linecap="round" opacity="0.82" transform="rotate(-18.44 363.09 512)"/>
  </g>
  <rect y="593.92" width="768" height="430.08" fill="url(#caption-gradient)"/>
  <g font-family="Inter, ui-sans-serif, system-ui, sans-serif">
    <text x="76.8" y="705.52" fill="#e9c46a" font-size="22" font-weight="800" letter-spacing="4">ORIGINAL HERO</text>
    <text fill="#ffffff" font-size="58" font-weight="900" letter-spacing="-1">
      <tspan x="76.8" y="747.52">Killa Mayu</tspan>
    </text>
    <text x="76.8" y="828.16" fill="#dce8f5" font-size="20" font-weight="650" letter-spacing="2">Tawantinsuyu: The Split Sun</text>
    <rect x="76.8" y="854.16" width="261.12" height="6" rx="3" fill="#7b2cbf"/>
  </g>
</svg>
