<?xml version="1.0" encoding="UTF-8"?>
<svg xmlns="http://www.w3.org/2000/svg" viewBox="0 0 768 1024" width="768" height="1024" role="img" aria-labelledby="visual-title visual-description" focusable="false" data-original-visual="true" data-kind="hero">
  <title id="visual-title">Sten Ulfsson</title>
  <desc id="visual-description">Original hero portrait for Sten Ulfsson from Nine Realms: Last Twilight.</desc>
  <defs>
    <linearGradient id="background-gradient" x1="0" y1="0" x2="1" y2="1">
      <stop offset="0%" stop-color="#101a2e"/>
      <stop offset="56%" stop-color="#02040a"/>
      <stop offset="100%" stop-color="#283845"/>
    </linearGradient>
    <radialGradient id="core-gradient" cx="50%" cy="45%" r="58%">
      <stop offset="0%" stop-color="#ffffff" stop-opacity="0.92"/>
      <stop offset="36%" stop-color="#8ecae6" stop-opacity="0.82"/>
      <stop offset="100%" stop-color="#9b59b6" stop-opacity="0.08"/>
    </radialGradient>
    <linearGradient id="subject-gradient" x1="0" y1="0" x2="1" y2="1">
      <stop offset="0%" stop-color="#9b59b6"/>
      <stop offset="100%" stop-color="#8ecae6"/>
    </linearGradient>
    <linearGradient id="caption-gradient" x1="0" y1="0" x2="0" y2="1">
      <stop offset="0%" stop-color="#02040a" stop-opacity="0"/>
      <stop offset="34%" stop-color="#02040a" stop-opacity="0.82"/>
      <stop offset="100%" stop-color="#02040a"/>
    </linearGradient>
  </defs>
  <rect width="768" height="1024" fill="url(#background-gradient)"/>
  <g aria-hidden="true">
    <circle cx="189.05" cy="952.35" r="2.59" fill="#9b59b6" opacity="0.61"/>
    <circle cx="327.09" cy="349.48" r="2.64" fill="#8ecae6" opacity="0.39"/>
    <circle cx="585.11" cy="682.92" r="1.75" fill="#8ecae6" opacity="0.28"/>
    <circle cx="354.57" cy="187.66" r="2.23" fill="#9b59b6" opacity="0.22"/>
    <circle cx="329.03" cy="896.33" r="2.63" fill="#8ecae6" opacity="0.21"/>
    <circle cx="533.26" cy="738.7" r="1.02" fill="#8ecae6" opacity="0.21"/>
    <circle cx="542.1" cy="500.38" r="2.32" fill="#9b59b6" opacity="0.66"/>
    <circle cx="275.32" cy="636.41" r="2.1" fill="#8ecae6" opacity="0.51"/>
    <circle cx="531.01" cy="985.47" r="2.81" fill="#8ecae6" opacity="0.44"/>
    <circle cx="178.16" cy="8.41" r="2.11" fill="#9b59b6" opacity="0.44"/>
    <circle cx="308.71" cy="815.92" r="2.2" fill="#8ecae6" opacity="0.6"/>
    <circle cx="505.42" cy="389.57" r="1.86" fill="#8ecae6" opacity="0.4"/>
    <circle cx="194.12" cy="1013.72" r="1.85" fill="#9b59b6" opacity="0.68"/>
    <circle cx="654.22" cy="798.9" r="2.95" fill="#8ecae6" opacity="0.45"/>
    <circle cx="742.93" cy="279.26" r="1.09" fill="#8ecae6" opacity="0.54"/>
    <circle cx="540.23" cy="764.15" r="2.84" fill="#9b59b6" opacity="0.31"/>
    <circle cx="134.07" cy="83.04" r="1.52" fill="#8ecae6" opacity="0.45"/>
    <circle cx="680.78" cy="901.12" r="2.15" fill="#8ecae6" opacity="0.41"/>
    <circle cx="60.15" cy="171.89" r="1.62" fill="#9b59b6" opacity="0.3"/>
    <circle cx="45.01" cy="287.23" r="1.05" fill="#8ecae6" opacity="0.68"/>
    <circle cx="645.08" cy="202.71" r="2.09" fill="#8ecae6" opacity="0.57"/>
    <circle cx="656.74" cy="551.8" r="1.32" fill="#9b59b6" opacity="0.19"/>
    <circle cx="575.16" cy="803.32" r="2.74" fill="#8ecae6" opacity="0.69"/>
    <circle cx="667.62" cy="717.19" r="2.47" fill="#8ecae6" opacity="0.6"/>
    <circle cx="734.52" cy="469.92" r="1.07" fill="#9b59b6" opacity="0.65"/>
    <circle cx="634.29" cy="1013.96" r="1.35" fill="#8ecae6" opacity="0.34"/>
    <circle cx="212.65" cy="529.13" r="1.57" fill="#8ecae6" opacity="0.2"/>
    <circle cx="117.12" cy="466.3" r="2.85" fill="#9b59b6" opacity="0.55"/>
    <circle cx="129.11" cy="659.72" r="1.07" fill="#8ecae6" opacity="0.19"/>
    <circle cx="583.47" cy="585.51" r="2.33" fill="#8ecae6" opacity="0.31"/>
  </g>
  <g aria-hidden="true" opacity="0.74">
    <path d="M -61.44 0 Q 384 68.13 829.44 -23.85" fill="none" stroke="#9b59b6" stroke-width="4.92" opacity="0.14"/>
    <path d="M -61.44 78.77 Q 384 42.39 829.44 91.5" fill="none" stroke="#8ecae6" stroke-width="6.46" opacity="0.3"/>
    <path d="M -61.44 157.54 Q 384 116.98 829.44 171.74" fill="none" stroke="#9b59b6" stroke-width="5.69" opacity="0.27"/>
    <path d="M -61.44 236.31 Q 384 141.67 829.44 269.43" fill="none" stroke="#8ecae6" stroke-width="6.32" opacity="0.28"/>
    <path d="M -61.44 315.08 Q 384 319.31 829.44 313.6" fill="none" stroke="#9b59b6" stroke-width="6.61" opacity="0.35"/>
    <path d="M -61.44 393.85 Q 384 343.55 829.44 411.46" fill="none" stroke="#8ecae6" stroke-width="2.12" opacity="0.3"/>
    <path d="M -61.44 472.62 Q 384 492.35 829.44 465.71" fill="none" stroke="#9b59b6" stroke-width="5.48" opacity="0.17"/>
    <path d="M -61.44 551.38 Q 384 663.12 829.44 512.27" fill="none" stroke="#8ecae6" stroke-width="5.85" opacity="0.14"/>
    <path d="M -61.44 630.15 Q 384 696.28 829.44 607" fill="none" stroke="#9b59b6" stroke-width="5.87" opacity="0.29"/>
    <path d="M -61.44 708.92 Q 384 729.38 829.44 701.76" fill="none" stroke="#8ecae6" stroke-width="6.7" opacity="0.3"/>
    <path d="M -61.44 787.69 Q 384 798.55 829.44 783.89" fill="none" stroke="#9b59b6" stroke-width="5.55" opacity="0.18"/>
    <path d="M -61.44 866.46 Q 384 800.58 829.44 889.52" fill="none" stroke="#8ecae6" stroke-width="5.13" opacity="0.31"/>
    <path d="M -61.44 945.23 Q 384 902.29 829.44 960.26" fill="none" stroke="#9b59b6" stroke-width="2.52" opacity="0.35"/>
    <path d="M -61.44 1024 Q 384 1072.5 829.44 1007.02" fill="none" stroke="#8ecae6" stroke-width="2.09" opacity="0.17"/>
  </g>
  <g aria-hidden="true">
    <circle cx="408.09" cy="313.8" r="178.66" fill="none" stroke="#9b59b6" stroke-width="5" opacity="0.38"/>
    <circle cx="408.09" cy="313.8" r="94.03" fill="url(#subject-gradient)" stroke="#8ecae6" stroke-width="5"/>
    <path d="M 196.99 716.8 Q 239.21 491.52 408.09 465.19 Q 576.97 491.52 619.19 716.8 Z" fill="url(#subject-gradient)" stroke="#8ecae6" stroke-width="6"/>
    <path d="M 185.37 624.64 L 646.17 368.64" stroke="#9b59b6" stroke-width="14" stroke-linecap="round" opacity="0.82" transform="rotate(19.78 408.09 512)"/>
  </g>
  <rect y="593.92" width="768" height="430.08" fill="url(#caption-gradient)"/>
  <g font-family="Inter, ui-sans-serif, system-ui, sans-serif">
    <text x="76.8" y="705.52" fill="#8ecae6" font-size="22" font-weight="800" letter-spacing="4">ORIGINAL HERO</text>
    <text fill="#ffffff" font-size="58" font-weight="900" letter-spacing="-1">
      <tspan x="76.8" y="747.52">Sten Ulfsson</tspan>
    </text>
    <text x="76.8" y="828.16" fill="#dce8f5" font-size="20" font-weight="650" letter-spacing="2">Nine Realms: Last Twilight</text>
    <rect x="76.8" y="854.16" width="261.12" height="6" rx="3" fill="#9b59b6"/>
  </g>
</svg>
