<?xml version="1.0" encoding="UTF-8"?>
<svg xmlns="http://www.w3.org/2000/svg" viewBox="0 0 768 1080" width="768" height="1080" role="img" aria-labelledby="visual-title visual-description" focusable="false" data-original-visual="true" data-kind="booster">
  <title id="visual-title">The Aether Crown</title>
  <desc id="visual-description">Original booster artwork for the world The Aether Crown.</desc>
  <defs>
    <linearGradient id="background-gradient" x1="0" y1="0" x2="1" y2="1">
      <stop offset="0%" stop-color="#7a5b3a"/>
      <stop offset="56%" stop-color="#172333"/>
      <stop offset="100%" stop-color="#3d2d22"/>
    </linearGradient>
    <radialGradient id="core-gradient" cx="50%" cy="45%" r="58%">
      <stop offset="0%" stop-color="#ffffff" stop-opacity="0.92"/>
      <stop offset="36%" stop-color="#e7b85a" stop-opacity="0.82"/>
      <stop offset="100%" stop-color="#65d8ff" stop-opacity="0.08"/>
    </radialGradient>
    <linearGradient id="subject-gradient" x1="0" y1="0" x2="1" y2="1">
      <stop offset="0%" stop-color="#65d8ff"/>
      <stop offset="100%" stop-color="#e7b85a"/>
    </linearGradient>
    <linearGradient id="caption-gradient" x1="0" y1="0" x2="0" y2="1">
      <stop offset="0%" stop-color="#172333" stop-opacity="0"/>
      <stop offset="34%" stop-color="#172333" stop-opacity="0.82"/>
      <stop offset="100%" stop-color="#172333"/>
    </linearGradient>
  </defs>
  <rect width="768" height="1080" fill="url(#background-gradient)"/>
  <g aria-hidden="true">
    <circle cx="440.84" cy="170.3" r="2.37" fill="#65d8ff" opacity="0.23"/>
    <circle cx="544.75" cy="608.16" r="1.85" fill="#e7b85a" opacity="0.38"/>
    <circle cx="558.2" cy="167.04" r="2.85" fill="#e7b85a" opacity="0.33"/>
    <circle cx="332.46" cy="468.63" r="1.75" fill="#65d8ff" opacity="0.18"/>
    <circle cx="383.08" cy="828.39" r="2.51" fill="#e7b85a" opacity="0.56"/>
    <circle cx="321.87" cy="901.59" r="2.87" fill="#e7b85a" opacity="0.46"/>
    <circle cx="428.08" cy="629.09" r="1.05" fill="#65d8ff" opacity="0.69"/>
    <circle cx="764.78" cy="525.17" r="2.76" fill="#e7b85a" opacity="0.19"/>
    <circle cx="645.32" cy="670.79" r="2.25" fill="#e7b85a" opacity="0.22"/>
    <circle cx="123.85" cy="763.8" r="2.27" fill="#65d8ff" opacity="0.35"/>
    <circle cx="401.03" cy="1036.27" r="1.33" fill="#e7b85a" opacity="0.52"/>
    <circle cx="553.41" cy="318.02" r="2.91" fill="#e7b85a" opacity="0.32"/>
    <circle cx="174.54" cy="211.39" r="2.72" fill="#65d8ff" opacity="0.55"/>
    <circle cx="118.21" cy="57.92" r="1.07" fill="#e7b85a" opacity="0.68"/>
    <circle cx="219.28" cy="97.45" r="1.73" fill="#e7b85a" opacity="0.36"/>
    <circle cx="270.28" cy="200.98" r="1.04" fill="#65d8ff" opacity="0.4"/>
    <circle cx="204.65" cy="819.31" r="1.72" fill="#e7b85a" opacity="0.52"/>
    <circle cx="199.88" cy="931.96" r="1.25" fill="#e7b85a" opacity="0.55"/>
    <circle cx="752.97" cy="815.46" r="1.94" fill="#65d8ff" opacity="0.67"/>
    <circle cx="278.97" cy="307.89" r="1.81" fill="#e7b85a" opacity="0.57"/>
    <circle cx="450.8" cy="519.21" r="1.67" fill="#e7b85a" opacity="0.51"/>
    <circle cx="403.67" cy="247.79" r="2.58" fill="#65d8ff" opacity="0.52"/>
    <circle cx="112.72" cy="245.11" r="1.35" fill="#e7b85a" opacity="0.24"/>
    <circle cx="109.17" cy="560.23" r="1.29" fill="#e7b85a" opacity="0.53"/>
    <circle cx="749.27" cy="173.91" r="2.27" fill="#65d8ff" opacity="0.3"/>
    <circle cx="248.21" cy="34.07" r="2.15" fill="#e7b85a" opacity="0.66"/>
    <circle cx="30.92" cy="824.54" r="1.16" fill="#e7b85a" opacity="0.33"/>
    <circle cx="152.34" cy="723.11" r="1.64" fill="#65d8ff" opacity="0.65"/>
    <circle cx="229.37" cy="891.53" r="2.65" fill="#e7b85a" opacity="0.2"/>
    <circle cx="210.62" cy="278.34" r="1.3" fill="#e7b85a" opacity="0.54"/>
  </g>
  <g aria-hidden="true" opacity="0.74">
    <rect x="34.56" y="34.56" width="698.88" height="1010.88" rx="7.6" fill="none" stroke="#65d8ff" stroke-width="2" opacity="0.32" transform="rotate(9 384 540)"/>
    <rect x="69.12" y="69.12" width="629.76" height="941.76" rx="15.21" fill="none" stroke="#e7b85a" stroke-width="2.6" opacity="0.3" transform="rotate(17 384 540)"/>
    <rect x="103.68" y="103.68" width="560.64" height="872.64" rx="22.81" fill="none" stroke="#65d8ff" stroke-width="3.2" opacity="0.28" transform="rotate(25 384 540)"/>
    <rect x="138.24" y="138.24" width="491.52" height="803.52" rx="30.41" fill="none" stroke="#e7b85a" stroke-width="3.8" opacity="0.26" transform="rotate(33 384 540)"/>
    <rect x="172.8" y="172.8" width="422.4" height="734.4" rx="38.02" fill="none" stroke="#65d8ff" stroke-width="4.4" opacity="0.24" transform="rotate(41 384 540)"/>
    <rect x="207.36" y="207.36" width="353.28" height="665.28" rx="45.62" fill="none" stroke="#e7b85a" stroke-width="5" opacity="0.22" transform="rotate(49 384 540)"/>
    <rect x="241.92" y="241.92" width="284.16" height="596.16" rx="53.22" fill="none" stroke="#65d8ff" stroke-width="5.6" opacity="0.2" transform="rotate(57 384 540)"/>
    <rect x="276.48" y="276.48" width="215.04" height="527.04" rx="60.83" fill="none" stroke="#e7b85a" stroke-width="6.2" opacity="0.18" transform="rotate(65 384 540)"/>
    <rect x="311.04" y="311.04" width="145.92" height="457.92" rx="68.43" fill="none" stroke="#65d8ff" stroke-width="6.8" opacity="0.16" transform="rotate(73 384 540)"/>
  </g>
  <g aria-hidden="true">
    <rect x="76.8" y="81" width="614.4" height="918" rx="57.6" fill="none" stroke="#e7b85a" stroke-width="8" opacity="0.72"/>
    <circle cx="410.99" cy="447.59" r="236.38" fill="none" stroke="#65d8ff" stroke-width="8" opacity="0.36"/>
    <circle cx="410.99" cy="447.59" r="149.61" fill="url(#core-gradient)" stroke="#e7b85a" stroke-width="6"/>
    <polygon points="410.99,229.16 449.89,268.06 410.99,306.96 372.09,268.06" fill="#65d8ff" opacity="0.82"/>
    <polygon points="618.73,380.09 593.76,429.11 544.74,404.13 569.71,355.12" fill="#e7b85a" opacity="0.82"/>
    <polygon points="539.38,624.3 485.05,615.7 493.65,561.36 547.99,569.97" fill="#65d8ff" opacity="0.82"/>
    <polygon points="282.6,624.3 273.99,569.97 328.33,561.36 336.93,615.7" fill="#e7b85a" opacity="0.82"/>
    <polygon points="203.25,380.09 252.27,355.12 277.24,404.13 228.22,429.11" fill="#65d8ff" opacity="0.82"/>
  </g>
  <rect y="626.4" width="768" height="453.6" fill="url(#caption-gradient)"/>
  <g font-family="Inter, ui-sans-serif, system-ui, sans-serif">
    <text x="76.8" y="746.4" fill="#e7b85a" font-size="22" font-weight="800" letter-spacing="4">ORIGINAL WORLD BOOSTER</text>
    <text fill="#ffffff" font-size="58" font-weight="900" letter-spacing="-1">
      <tspan x="76.8" y="788.4">The Aether Crown</tspan>
    </text>
    <text x="76.8" y="869.04" fill="#dce8f5" font-size="20" font-weight="650" letter-spacing="2">FIVE-CARD BREACH PACK</text>
    <rect x="76.8" y="895.04" width="261.12" height="6" rx="3" fill="#65d8ff"/>
  </g>
</svg>
