<?xml version="1.0" encoding="UTF-8"?>
<svg xmlns="http://www.w3.org/2000/svg" viewBox="0 0 768 1080" width="768" height="1080" role="img" aria-labelledby="visual-title visual-description" focusable="false" data-original-visual="true" data-kind="booster">
  <title id="visual-title">Kemet: The Devoured Sun</title>
  <desc id="visual-description">Original booster artwork for the world Kemet: The Devoured Sun.</desc>
  <defs>
    <linearGradient id="background-gradient" x1="0" y1="0" x2="1" y2="1">
      <stop offset="0%" stop-color="#120b22"/>
      <stop offset="56%" stop-color="#020105"/>
      <stop offset="100%" stop-color="#6b3e1f"/>
    </linearGradient>
    <radialGradient id="core-gradient" cx="50%" cy="45%" r="58%">
      <stop offset="0%" stop-color="#ffffff" stop-opacity="0.92"/>
      <stop offset="36%" stop-color="#f4d35e" stop-opacity="0.82"/>
      <stop offset="100%" stop-color="#22a6b3" stop-opacity="0.08"/>
    </radialGradient>
    <linearGradient id="subject-gradient" x1="0" y1="0" x2="1" y2="1">
      <stop offset="0%" stop-color="#22a6b3"/>
      <stop offset="100%" stop-color="#f4d35e"/>
    </linearGradient>
    <linearGradient id="caption-gradient" x1="0" y1="0" x2="0" y2="1">
      <stop offset="0%" stop-color="#020105" stop-opacity="0"/>
      <stop offset="34%" stop-color="#020105" stop-opacity="0.82"/>
      <stop offset="100%" stop-color="#020105"/>
    </linearGradient>
  </defs>
  <rect width="768" height="1080" fill="url(#background-gradient)"/>
  <g aria-hidden="true">
    <circle cx="606.45" cy="299.39" r="1.81" fill="#22a6b3" opacity="0.72"/>
    <circle cx="67.09" cy="938.26" r="1.64" fill="#f4d35e" opacity="0.61"/>
    <circle cx="767.27" cy="339.83" r="1.83" fill="#f4d35e" opacity="0.64"/>
    <circle cx="505.8" cy="716.09" r="1.26" fill="#22a6b3" opacity="0.23"/>
    <circle cx="673.98" cy="747.13" r="1.58" fill="#f4d35e" opacity="0.43"/>
    <circle cx="467.69" cy="240.17" r="2.38" fill="#f4d35e" opacity="0.32"/>
    <circle cx="601.28" cy="809.01" r="2.98" fill="#22a6b3" opacity="0.27"/>
    <circle cx="667.7" cy="431.79" r="2.77" fill="#f4d35e" opacity="0.44"/>
    <circle cx="35.91" cy="962.18" r="1.79" fill="#f4d35e" opacity="0.64"/>
    <circle cx="158.61" cy="970.57" r="2.65" fill="#22a6b3" opacity="0.34"/>
    <circle cx="481.59" cy="490.72" r="1.65" fill="#f4d35e" opacity="0.6"/>
    <circle cx="479.3" cy="692.24" r="1.28" fill="#f4d35e" opacity="0.72"/>
    <circle cx="472.56" cy="903.51" r="1.45" fill="#22a6b3" opacity="0.44"/>
    <circle cx="440.45" cy="35.21" r="1.72" fill="#f4d35e" opacity="0.56"/>
    <circle cx="257.3" cy="145.53" r="1.82" fill="#f4d35e" opacity="0.69"/>
    <circle cx="737.58" cy="942.29" r="2.44" fill="#22a6b3" opacity="0.36"/>
    <circle cx="463.25" cy="125.25" r="2.78" fill="#f4d35e" opacity="0.3"/>
    <circle cx="39.19" cy="545.63" r="1.18" fill="#f4d35e" opacity="0.2"/>
    <circle cx="19.32" cy="529.36" r="2.8" fill="#22a6b3" opacity="0.33"/>
    <circle cx="281.63" cy="845.55" r="1.93" fill="#f4d35e" opacity="0.71"/>
    <circle cx="309.05" cy="26.94" r="1.41" fill="#f4d35e" opacity="0.65"/>
    <circle cx="709.33" cy="619.19" r="1.43" fill="#22a6b3" opacity="0.61"/>
    <circle cx="210.09" cy="379.39" r="1.49" fill="#f4d35e" opacity="0.54"/>
    <circle cx="339.22" cy="753.56" r="1.59" fill="#f4d35e" opacity="0.66"/>
    <circle cx="665.19" cy="531.42" r="1.51" fill="#22a6b3" opacity="0.35"/>
    <circle cx="430.23" cy="516.99" r="2.03" fill="#f4d35e" opacity="0.45"/>
    <circle cx="268.89" cy="615.49" r="1.22" fill="#f4d35e" opacity="0.57"/>
    <circle cx="185.13" cy="523.36" r="1.13" fill="#22a6b3" opacity="0.26"/>
    <circle cx="693.12" cy="314.45" r="2.39" fill="#f4d35e" opacity="0.31"/>
    <circle cx="206.21" cy="739.48" r="1.27" fill="#f4d35e" opacity="0.39"/>
  </g>
  <g aria-hidden="true" opacity="0.74">
    <rect x="34.56" y="34.56" width="698.88" height="1010.88" rx="7.6" fill="none" stroke="#22a6b3" stroke-width="2" opacity="0.32" transform="rotate(6 384 540)"/>
    <rect x="69.12" y="69.12" width="629.76" height="941.76" rx="15.21" fill="none" stroke="#f4d35e" stroke-width="2.6" opacity="0.3" transform="rotate(14 384 540)"/>
    <rect x="103.68" y="103.68" width="560.64" height="872.64" rx="22.81" fill="none" stroke="#22a6b3" stroke-width="3.2" opacity="0.28" transform="rotate(22 384 540)"/>
    <rect x="138.24" y="138.24" width="491.52" height="803.52" rx="30.41" fill="none" stroke="#f4d35e" stroke-width="3.8" opacity="0.26" transform="rotate(30 384 540)"/>
    <rect x="172.8" y="172.8" width="422.4" height="734.4" rx="38.02" fill="none" stroke="#22a6b3" stroke-width="4.4" opacity="0.24" transform="rotate(38 384 540)"/>
    <rect x="207.36" y="207.36" width="353.28" height="665.28" rx="45.62" fill="none" stroke="#f4d35e" stroke-width="5" opacity="0.22" transform="rotate(46 384 540)"/>
    <rect x="241.92" y="241.92" width="284.16" height="596.16" rx="53.22" fill="none" stroke="#22a6b3" stroke-width="5.6" opacity="0.2" transform="rotate(54 384 540)"/>
    <rect x="276.48" y="276.48" width="215.04" height="527.04" rx="60.83" fill="none" stroke="#f4d35e" stroke-width="6.2" opacity="0.18" transform="rotate(62 384 540)"/>
    <rect x="311.04" y="311.04" width="145.92" height="457.92" rx="68.43" fill="none" stroke="#22a6b3" stroke-width="6.8" opacity="0.16" transform="rotate(70 384 540)"/>
  </g>
  <g aria-hidden="true">
    <rect x="76.8" y="81" width="614.4" height="918" rx="57.6" fill="none" stroke="#f4d35e" stroke-width="8" opacity="0.72"/>
    <circle cx="394.24" cy="440.91" r="235.7" fill="none" stroke="#22a6b3" stroke-width="8" opacity="0.36"/>
    <circle cx="394.24" cy="440.91" r="149.18" fill="url(#core-gradient)" stroke="#f4d35e" stroke-width="6"/>
    <polygon points="394.24,223.11 433.03,261.89 394.24,300.68 355.45,261.89" fill="#22a6b3" opacity="0.82"/>
    <polygon points="601.38,373.61 576.48,422.48 527.61,397.58 552.51,348.7" fill="#f4d35e" opacity="0.82"/>
    <polygon points="522.26,617.12 468.08,608.54 476.66,554.36 530.84,562.94" fill="#22a6b3" opacity="0.82"/>
    <polygon points="266.22,617.12 257.64,562.94 311.82,554.36 320.4,608.54" fill="#f4d35e" opacity="0.82"/>
    <polygon points="187.1,373.61 235.97,348.7 260.87,397.58 212,422.48" fill="#22a6b3" opacity="0.82"/>
  </g>
  <rect y="626.4" width="768" height="453.6" fill="url(#caption-gradient)"/>
  <g font-family="Inter, ui-sans-serif, system-ui, sans-serif">
    <text x="76.8" y="746.4" fill="#f4d35e" font-size="22" font-weight="800" letter-spacing="4">ORIGINAL WORLD BOOSTER</text>
    <text fill="#ffffff" font-size="58" font-weight="900" letter-spacing="-1">
      <tspan x="76.8" y="788.4">Kemet: The Devoured</tspan>
      <tspan x="76.8" y="851.04">Sun</tspan>
    </text>
    <text x="76.8" y="931.68" fill="#dce8f5" font-size="20" font-weight="650" letter-spacing="2">FIVE-CARD BREACH PACK</text>
    <rect x="76.8" y="957.68" width="261.12" height="6" rx="3" fill="#22a6b3"/>
  </g>
</svg>
