<?xml version="1.0" encoding="UTF-8"?>
<svg xmlns="http://www.w3.org/2000/svg" viewBox="0 0 768 768" width="768" height="768" role="img" aria-labelledby="visual-title visual-description" focusable="false" data-original-visual="true" data-kind="item">
  <title id="visual-title">Break the Drowned Testament</title>
  <desc id="visual-description">Original item artwork for Break the Drowned Testament from The Drowned Testament.</desc>
  <defs>
    <linearGradient id="background-gradient" x1="0" y1="0" x2="1" y2="1">
      <stop offset="0%" stop-color="#071b24"/>
      <stop offset="56%" stop-color="#010304"/>
      <stop offset="100%" stop-color="#18343b"/>
    </linearGradient>
    <radialGradient id="core-gradient" cx="50%" cy="45%" r="58%">
      <stop offset="0%" stop-color="#ffffff" stop-opacity="0.92"/>
      <stop offset="36%" stop-color="#70d6ff" stop-opacity="0.82"/>
      <stop offset="100%" stop-color="#c77dff" stop-opacity="0.08"/>
    </radialGradient>
    <linearGradient id="subject-gradient" x1="0" y1="0" x2="1" y2="1">
      <stop offset="0%" stop-color="#c77dff"/>
      <stop offset="100%" stop-color="#70d6ff"/>
    </linearGradient>
    <linearGradient id="caption-gradient" x1="0" y1="0" x2="0" y2="1">
      <stop offset="0%" stop-color="#010304" stop-opacity="0"/>
      <stop offset="34%" stop-color="#010304" stop-opacity="0.82"/>
      <stop offset="100%" stop-color="#010304"/>
    </linearGradient>
  </defs>
  <rect width="768" height="768" fill="url(#background-gradient)"/>
  <g aria-hidden="true">
    <circle cx="264.8" cy="288.88" r="2.19" fill="#c77dff" opacity="0.3"/>
    <circle cx="696.62" cy="129.16" r="2.92" fill="#70d6ff" opacity="0.66"/>
    <circle cx="562.19" cy="182.66" r="1.27" fill="#70d6ff" opacity="0.69"/>
    <circle cx="340.14" cy="352.66" r="2.19" fill="#c77dff" opacity="0.2"/>
    <circle cx="339.27" cy="368.13" r="1.85" fill="#70d6ff" opacity="0.43"/>
    <circle cx="222.33" cy="257.33" r="2.08" fill="#70d6ff" opacity="0.64"/>
    <circle cx="532.74" cy="691.84" r="1.73" fill="#c77dff" opacity="0.34"/>
    <circle cx="534.12" cy="261.87" r="1.44" fill="#70d6ff" opacity="0.4"/>
    <circle cx="401.03" cy="25.64" r="2.73" fill="#70d6ff" opacity="0.26"/>
    <circle cx="329.78" cy="86.41" r="1.13" fill="#c77dff" opacity="0.31"/>
    <circle cx="662.95" cy="542.3" r="2.27" fill="#70d6ff" opacity="0.68"/>
    <circle cx="375.81" cy="712.82" r="2.4" fill="#70d6ff" opacity="0.7"/>
    <circle cx="675.22" cy="658.17" r="2.17" fill="#c77dff" opacity="0.26"/>
    <circle cx="764.12" cy="723.62" r="2.76" fill="#70d6ff" opacity="0.36"/>
    <circle cx="231.75" cy="688.81" r="1.16" fill="#70d6ff" opacity="0.23"/>
    <circle cx="217.86" cy="472.68" r="2.78" fill="#c77dff" opacity="0.41"/>
    <circle cx="187.56" cy="527.81" r="1.35" fill="#70d6ff" opacity="0.19"/>
    <circle cx="599.4" cy="292.93" r="2.79" fill="#70d6ff" opacity="0.44"/>
    <circle cx="14.96" cy="348.59" r="2.07" fill="#c77dff" opacity="0.63"/>
    <circle cx="392.01" cy="165.64" r="2.46" fill="#70d6ff" opacity="0.31"/>
    <circle cx="483.59" cy="764.81" r="2.27" fill="#70d6ff" opacity="0.3"/>
    <circle cx="276.3" cy="628.49" r="2.57" fill="#c77dff" opacity="0.22"/>
    <circle cx="733.3" cy="264.32" r="2.38" fill="#70d6ff" opacity="0.48"/>
    <circle cx="142.97" cy="512.65" r="1.16" fill="#70d6ff" opacity="0.68"/>
    <circle cx="303.3" cy="158.37" r="2.41" fill="#c77dff" opacity="0.19"/>
    <circle cx="195.84" cy="660.46" r="1.92" fill="#70d6ff" opacity="0.44"/>
    <circle cx="713.96" cy="542.95" r="2.43" fill="#70d6ff" opacity="0.62"/>
    <circle cx="422.5" cy="706.28" r="1.53" fill="#c77dff" opacity="0.48"/>
    <circle cx="300.79" cy="409.14" r="2.11" fill="#70d6ff" opacity="0.46"/>
    <circle cx="667.96" cy="368.19" r="2.08" fill="#70d6ff" opacity="0.61"/>
  </g>
  <g aria-hidden="true" opacity="0.74">
    <path d="M 0 -76.8 L -16.74 844.8" stroke="#c77dff" stroke-width="9.58" opacity="0.38"/>
    <path d="M 64 -76.8 L 32.61 844.8" stroke="#70d6ff" stroke-width="4.55" opacity="0.34"/>
    <path d="M 128 -76.8 L 64.66 844.8" stroke="#70d6ff" stroke-width="8.28" opacity="0.32"/>
    <path d="M 192 -76.8 L 150.34 844.8" stroke="#c77dff" stroke-width="4.76" opacity="0.31"/>
    <path d="M 256 -76.8 L 211.42 844.8" stroke="#70d6ff" stroke-width="9.22" opacity="0.16"/>
    <path d="M 320 -76.8 L 267.41 844.8" stroke="#70d6ff" stroke-width="7.97" opacity="0.2"/>
    <path d="M 384 -76.8 L 377.17 844.8" stroke="#c77dff" stroke-width="5.61" opacity="0.31"/>
    <path d="M 448 -76.8 L 471.58 844.8" stroke="#70d6ff" stroke-width="5.76" opacity="0.27"/>
    <path d="M 512 -76.8 L 564.02 844.8" stroke="#70d6ff" stroke-width="4.99" opacity="0.33"/>
    <path d="M 576 -76.8 L 570.99 844.8" stroke="#c77dff" stroke-width="7.04" opacity="0.38"/>
    <path d="M 640 -76.8 L 601.91 844.8" stroke="#70d6ff" stroke-width="8.96" opacity="0.14"/>
    <path d="M 704 -76.8 L 753.02 844.8" stroke="#70d6ff" stroke-width="4.17" opacity="0.19"/>
    <path d="M 768 -76.8 L 724.6 844.8" stroke="#c77dff" stroke-width="6.45" opacity="0.38"/>
  </g>
  <g aria-hidden="true">
    <circle cx="406.49" cy="343.13" r="250.4" fill="none" stroke="#70d6ff" stroke-width="5" stroke-dasharray="16 13" opacity="0.48"/>
    <polygon points="561.06,344.18 515.04,453.17 405.44,497.7 296.45,451.68 251.92,342.08 297.94,233.09 407.54,188.56 516.53,234.58" fill="url(#subject-gradient)" stroke="#c77dff" stroke-width="8"/>
    <polygon points="472.93,376.15 373.47,409.57 340.05,310.11 439.51,276.69" fill="#010304" stroke="#70d6ff" stroke-width="5"/>
  </g>
  <rect y="445.44" width="768" height="322.56" fill="url(#caption-gradient)"/>
  <g font-family="Inter, ui-sans-serif, system-ui, sans-serif">
    <text x="76.8" y="495.6" fill="#70d6ff" font-size="22" font-weight="800" letter-spacing="4">ORIGINAL ITEM</text>
    <text fill="#ffffff" font-size="49" font-weight="900" letter-spacing="-1">
      <tspan x="76.8" y="537.6">Break the Drowned</tspan>
      <tspan x="76.8" y="590.52">Testament</tspan>
    </text>
    <text x="76.8" y="661.44" fill="#dce8f5" font-size="20" font-weight="650" letter-spacing="2">The Drowned Testament · ULTIMATE</text>
    <rect x="76.8" y="687.44" width="261.12" height="6" rx="3" fill="#c77dff"/>
  </g>
</svg>
