<?xml version="1.0" encoding="UTF-8"?>
<svg xmlns="http://www.w3.org/2000/svg" viewBox="0 0 768 768" width="768" height="768" role="img" aria-labelledby="visual-title visual-description" focusable="false" data-original-visual="true" data-kind="item">
  <title id="visual-title">Greywake Rescuers</title>
  <desc id="visual-description">Original item artwork for Greywake Rescuers from The Drowned Testament.</desc>
  <defs>
    <linearGradient id="background-gradient" x1="0" y1="0" x2="1" y2="1">
      <stop offset="0%" stop-color="#071b24"/>
      <stop offset="56%" stop-color="#010304"/>
      <stop offset="100%" stop-color="#18343b"/>
    </linearGradient>
    <radialGradient id="core-gradient" cx="50%" cy="45%" r="58%">
      <stop offset="0%" stop-color="#ffffff" stop-opacity="0.92"/>
      <stop offset="36%" stop-color="#70d6ff" stop-opacity="0.82"/>
      <stop offset="100%" stop-color="#c77dff" stop-opacity="0.08"/>
    </radialGradient>
    <linearGradient id="subject-gradient" x1="0" y1="0" x2="1" y2="1">
      <stop offset="0%" stop-color="#c77dff"/>
      <stop offset="100%" stop-color="#70d6ff"/>
    </linearGradient>
    <linearGradient id="caption-gradient" x1="0" y1="0" x2="0" y2="1">
      <stop offset="0%" stop-color="#010304" stop-opacity="0"/>
      <stop offset="34%" stop-color="#010304" stop-opacity="0.82"/>
      <stop offset="100%" stop-color="#010304"/>
    </linearGradient>
  </defs>
  <rect width="768" height="768" fill="url(#background-gradient)"/>
  <g aria-hidden="true">
    <circle cx="613.29" cy="210.68" r="1.66" fill="#c77dff" opacity="0.26"/>
    <circle cx="72.48" cy="694.82" r="1.38" fill="#70d6ff" opacity="0.24"/>
    <circle cx="542.87" cy="441.59" r="2.14" fill="#70d6ff" opacity="0.19"/>
    <circle cx="765.25" cy="701.5" r="2.12" fill="#c77dff" opacity="0.56"/>
    <circle cx="107.47" cy="314.25" r="2.9" fill="#70d6ff" opacity="0.72"/>
    <circle cx="256.05" cy="345.98" r="2.42" fill="#70d6ff" opacity="0.52"/>
    <circle cx="48.59" cy="562.01" r="2.72" fill="#c77dff" opacity="0.63"/>
    <circle cx="24.85" cy="97.24" r="2.01" fill="#70d6ff" opacity="0.7"/>
    <circle cx="640.1" cy="174.52" r="2.2" fill="#70d6ff" opacity="0.41"/>
    <circle cx="752.23" cy="723.49" r="2.13" fill="#c77dff" opacity="0.23"/>
    <circle cx="99.89" cy="361.05" r="2.49" fill="#70d6ff" opacity="0.43"/>
    <circle cx="572" cy="582.09" r="1.17" fill="#70d6ff" opacity="0.36"/>
    <circle cx="274.47" cy="438.57" r="2.19" fill="#c77dff" opacity="0.52"/>
    <circle cx="520.5" cy="529.32" r="1.23" fill="#70d6ff" opacity="0.19"/>
    <circle cx="387.03" cy="161.3" r="1.19" fill="#70d6ff" opacity="0.46"/>
    <circle cx="119.9" cy="339.36" r="1.87" fill="#c77dff" opacity="0.33"/>
    <circle cx="452.19" cy="96.4" r="1.49" fill="#70d6ff" opacity="0.65"/>
    <circle cx="433.1" cy="462.32" r="2.39" fill="#70d6ff" opacity="0.39"/>
    <circle cx="69.24" cy="529.77" r="1.09" fill="#c77dff" opacity="0.52"/>
    <circle cx="330.31" cy="552.28" r="2.97" fill="#70d6ff" opacity="0.24"/>
    <circle cx="294.19" cy="571.3" r="1.29" fill="#70d6ff" opacity="0.44"/>
    <circle cx="272.56" cy="436.03" r="2.16" fill="#c77dff" opacity="0.19"/>
    <circle cx="716.02" cy="589.44" r="2.75" fill="#70d6ff" opacity="0.33"/>
    <circle cx="623.83" cy="404.17" r="2.95" fill="#70d6ff" opacity="0.38"/>
    <circle cx="474.6" cy="745.5" r="1.06" fill="#c77dff" opacity="0.55"/>
    <circle cx="272.98" cy="246.68" r="2.99" fill="#70d6ff" opacity="0.68"/>
    <circle cx="759.45" cy="201.72" r="1.12" fill="#70d6ff" opacity="0.72"/>
    <circle cx="291.83" cy="22.49" r="1.31" fill="#c77dff" opacity="0.72"/>
    <circle cx="234.24" cy="384.71" r="1.6" fill="#70d6ff" opacity="0.58"/>
    <circle cx="358.37" cy="221.19" r="2.72" fill="#70d6ff" opacity="0.69"/>
  </g>
  <g aria-hidden="true" opacity="0.74">
    <path d="M 0 -76.8 L 53.29 844.8" stroke="#c77dff" stroke-width="3.07" opacity="0.3"/>
    <path d="M 64 -76.8 L 7.28 844.8" stroke="#70d6ff" stroke-width="7.78" opacity="0.23"/>
    <path d="M 128 -76.8 L 78.36 844.8" stroke="#70d6ff" stroke-width="4.55" opacity="0.12"/>
    <path d="M 192 -76.8 L 132.81 844.8" stroke="#c77dff" stroke-width="9.43" opacity="0.35"/>
    <path d="M 256 -76.8 L 324.89 844.8" stroke="#70d6ff" stroke-width="5.85" opacity="0.23"/>
    <path d="M 320 -76.8 L 342.99 844.8" stroke="#70d6ff" stroke-width="4.1" opacity="0.23"/>
    <path d="M 384 -76.8 L 382.48 844.8" stroke="#c77dff" stroke-width="9.92" opacity="0.19"/>
    <path d="M 448 -76.8 L 513.91 844.8" stroke="#70d6ff" stroke-width="5.43" opacity="0.28"/>
    <path d="M 512 -76.8 L 577.25 844.8" stroke="#70d6ff" stroke-width="5.73" opacity="0.14"/>
    <path d="M 576 -76.8 L 524.47 844.8" stroke="#c77dff" stroke-width="4.11" opacity="0.3"/>
    <path d="M 640 -76.8 L 579.94 844.8" stroke="#70d6ff" stroke-width="5.97" opacity="0.16"/>
    <path d="M 704 -76.8 L 761.45 844.8" stroke="#70d6ff" stroke-width="3.49" opacity="0.15"/>
    <path d="M 768 -76.8 L 706.28 844.8" stroke="#c77dff" stroke-width="5.31" opacity="0.19"/>
  </g>
  <g aria-hidden="true">
    <circle cx="385.71" cy="317.02" r="213.99" fill="none" stroke="#70d6ff" stroke-width="5" stroke-dasharray="16 13" opacity="0.48"/>
    <polygon points="411.74,446.52 270.59,381.8 288.53,227.56 440.77,196.95 516.92,332.28" fill="url(#subject-gradient)" stroke="#c77dff" stroke-width="8"/>
    <polygon points="369.63,378.35 324.38,300.94 401.79,255.69 447.04,333.1" fill="#010304" stroke="#70d6ff" stroke-width="5"/>
  </g>
  <rect y="445.44" width="768" height="322.56" fill="url(#caption-gradient)"/>
  <g font-family="Inter, ui-sans-serif, system-ui, sans-serif">
    <text x="76.8" y="495.6" fill="#70d6ff" font-size="22" font-weight="800" letter-spacing="4">ORIGINAL ITEM</text>
    <text fill="#ffffff" font-size="49" font-weight="900" letter-spacing="-1">
      <tspan x="76.8" y="537.6">Greywake Rescuers</tspan>
    </text>
    <text x="76.8" y="608.52" fill="#dce8f5" font-size="20" font-weight="650" letter-spacing="2">The Drowned Testament · SUMMON</text>
    <rect x="76.8" y="634.52" width="261.12" height="6" rx="3" fill="#c77dff"/>
  </g>
</svg>
