<?xml version="1.0" encoding="UTF-8"?>
<svg xmlns="http://www.w3.org/2000/svg" viewBox="0 0 1600 900" width="1600" height="900" role="img" aria-labelledby="visual-title visual-description" focusable="false" data-original-visual="true" data-kind="stage">
  <title id="visual-title">Bifrons Gate</title>
  <desc id="visual-description">Original stage artwork for Bifrons Gate in Imperium Aeternum.</desc>
  <defs>
    <linearGradient id="background-gradient" x1="0" y1="0" x2="1" y2="1">
      <stop offset="0%" stop-color="#281414"/>
      <stop offset="56%" stop-color="#050202"/>
      <stop offset="100%" stop-color="#5e4a3b"/>
    </linearGradient>
    <radialGradient id="core-gradient" cx="50%" cy="45%" r="58%">
      <stop offset="0%" stop-color="#ffffff" stop-opacity="0.92"/>
      <stop offset="36%" stop-color="#d4af37" stop-opacity="0.82"/>
      <stop offset="100%" stop-color="#c0392b" stop-opacity="0.08"/>
    </radialGradient>
    <linearGradient id="subject-gradient" x1="0" y1="0" x2="1" y2="1">
      <stop offset="0%" stop-color="#c0392b"/>
      <stop offset="100%" stop-color="#d4af37"/>
    </linearGradient>
    <linearGradient id="caption-gradient" x1="0" y1="0" x2="0" y2="1">
      <stop offset="0%" stop-color="#050202" stop-opacity="0"/>
      <stop offset="34%" stop-color="#050202" stop-opacity="0.82"/>
      <stop offset="100%" stop-color="#050202"/>
    </linearGradient>
  </defs>
  <rect width="1600" height="900" fill="url(#background-gradient)"/>
  <g aria-hidden="true">
    <circle cx="469.97" cy="194.91" r="4.53" fill="#c0392b" opacity="0.35"/>
    <circle cx="392.2" cy="12.18" r="2.09" fill="#d4af37" opacity="0.7"/>
    <circle cx="1469.02" cy="136.06" r="4.77" fill="#d4af37" opacity="0.72"/>
    <circle cx="1134.34" cy="36.72" r="3.83" fill="#c0392b" opacity="0.3"/>
    <circle cx="987.46" cy="164.25" r="1.22" fill="#d4af37" opacity="0.5"/>
    <circle cx="1042.99" cy="770.67" r="4.78" fill="#d4af37" opacity="0.64"/>
    <circle cx="1086.19" cy="281.92" r="2.18" fill="#c0392b" opacity="0.2"/>
    <circle cx="1451.74" cy="561.37" r="1.63" fill="#d4af37" opacity="0.67"/>
    <circle cx="258.81" cy="105.87" r="1.38" fill="#d4af37" opacity="0.42"/>
    <circle cx="1547.97" cy="103.75" r="4.22" fill="#c0392b" opacity="0.63"/>
    <circle cx="1249.21" cy="91.04" r="4.08" fill="#d4af37" opacity="0.51"/>
    <circle cx="479.82" cy="143.05" r="4.13" fill="#d4af37" opacity="0.35"/>
    <circle cx="1241.85" cy="443.97" r="2.13" fill="#c0392b" opacity="0.47"/>
    <circle cx="1393.5" cy="222.07" r="4.59" fill="#d4af37" opacity="0.7"/>
    <circle cx="519.64" cy="702.79" r="1.23" fill="#d4af37" opacity="0.72"/>
    <circle cx="80.69" cy="468.86" r="4.67" fill="#c0392b" opacity="0.37"/>
    <circle cx="339.42" cy="99.06" r="4.23" fill="#d4af37" opacity="0.28"/>
    <circle cx="706.52" cy="205.25" r="3.26" fill="#d4af37" opacity="0.44"/>
    <circle cx="749.91" cy="795.79" r="3.23" fill="#c0392b" opacity="0.58"/>
    <circle cx="468.76" cy="815.96" r="2.96" fill="#d4af37" opacity="0.26"/>
    <circle cx="699.67" cy="249.48" r="3.74" fill="#d4af37" opacity="0.41"/>
    <circle cx="1590.7" cy="568.86" r="4.72" fill="#c0392b" opacity="0.23"/>
    <circle cx="74.5" cy="727.73" r="3.66" fill="#d4af37" opacity="0.47"/>
    <circle cx="169.59" cy="707.83" r="1.61" fill="#d4af37" opacity="0.25"/>
    <circle cx="1585.25" cy="635.99" r="1.48" fill="#c0392b" opacity="0.56"/>
    <circle cx="831.43" cy="586.87" r="3.38" fill="#d4af37" opacity="0.23"/>
    <circle cx="206.03" cy="323.75" r="2.32" fill="#d4af37" opacity="0.48"/>
    <circle cx="88.36" cy="439.34" r="2.84" fill="#c0392b" opacity="0.66"/>
    <circle cx="533.88" cy="349.73" r="2.22" fill="#d4af37" opacity="0.22"/>
    <circle cx="769.42" cy="369.17" r="2.86" fill="#d4af37" opacity="0.56"/>
    <circle cx="1313.73" cy="100.91" r="4.2" fill="#c0392b" opacity="0.23"/>
    <circle cx="1369.04" cy="23.02" r="2.89" fill="#d4af37" opacity="0.37"/>
    <circle cx="428.11" cy="67.81" r="2.86" fill="#d4af37" opacity="0.24"/>
    <circle cx="387.68" cy="371.78" r="3.96" fill="#c0392b" opacity="0.59"/>
    <circle cx="1357.86" cy="683.47" r="4.3" fill="#d4af37" opacity="0.37"/>
    <circle cx="324.97" cy="816.37" r="2.69" fill="#d4af37" opacity="0.36"/>
    <circle cx="1020.18" cy="741.75" r="4.39" fill="#c0392b" opacity="0.58"/>
    <circle cx="1216.91" cy="512.21" r="4.04" fill="#d4af37" opacity="0.5"/>
    <circle cx="384.61" cy="634.97" r="1.6" fill="#d4af37" opacity="0.27"/>
    <circle cx="1514.17" cy="90.26" r="1.77" fill="#c0392b" opacity="0.58"/>
    <circle cx="745.28" cy="605.98" r="1.41" fill="#d4af37" opacity="0.46"/>
    <circle cx="767.84" cy="669.33" r="2.57" fill="#d4af37" opacity="0.48"/>
    <circle cx="1273.43" cy="899.52" r="4.12" fill="#c0392b" opacity="0.62"/>
    <circle cx="493.84" cy="605.77" r="3.15" fill="#d4af37" opacity="0.54"/>
  </g>
  <g aria-hidden="true" opacity="0.74">
    <polygon points="654.69,474.41 586.69,369.87 711.23,363.25" fill="none" stroke="#c0392b" stroke-width="2" opacity="0.38"/>
    <polygon points="580,477.94 575.44,331.64 721.74,327.08 726.3,473.38" fill="none" stroke="#d4af37" stroke-width="2.5" opacity="0.35"/>
    <polygon points="746.95,497.34 590.37,523.19 517.4,382.26 628.88,269.31 770.75,340.44" fill="none" stroke="#c0392b" stroke-width="3" opacity="0.33"/>
    <polygon points="659.13,568.81 510.98,492.81 502.72,326.52 642.61,236.21 790.76,312.21 799.02,478.5" fill="none" stroke="#d4af37" stroke-width="3.5" opacity="0.3"/>
    <polygon points="626.7,599.03 482.16,506.14 464.66,335.22 587.38,214.97 757.91,235.94 847.84,382.34 789.45,543.93" fill="none" stroke="#c0392b" stroke-width="4" opacity="0.28"/>
    <polygon points="840.72,531.45 444.28,502.46 667.61,173.62" fill="none" stroke="#d4af37" stroke-width="4.5" opacity="0.26"/>
    <polygon points="399.62,473.19 580.19,151.26 902.12,331.83 721.55,653.76" fill="none" stroke="#c0392b" stroke-width="5" opacity="0.23"/>
    <polygon points="936.73,464.49 680.25,693.53 383.17,520.39 456.04,184.34 798.16,149.8" fill="none" stroke="#d4af37" stroke-width="5.5" opacity="0.2"/>
    <polygon points="885.13,626.34 574.16,717.3 339.9,493.47 416.61,178.68 727.58,87.72 961.84,311.55" fill="none" stroke="#c0392b" stroke-width="6" opacity="0.18"/>
    <polygon points="552.22,744.05 322.34,538.33 339.85,230.34 591.56,51.99 887.94,137.6 1005.8,422.69 856.39,692.58" fill="none" stroke="#d4af37" stroke-width="6.5" opacity="0.15"/>
  </g>
  <g aria-hidden="true">
    <circle cx="781.61" cy="224.97" r="81" fill="url(#core-gradient)" opacity="0.86"/>
    <circle cx="781.61" cy="224.97" r="117.45" fill="none" stroke="#d4af37" stroke-width="4" opacity="0.38"/>
    <polygon points="0,900 0,504 177.78,307.14 355.56,381.32 533.33,334.01 711.11,435.79 888.89,420.63 1066.67,396.16 1244.44,502.42 1422.22,468.24 1600,504 1600,900" fill="#5e4a3b" opacity="0.94"/>
    <path d="M 0 504 L 1600 504" stroke="#d4af37" stroke-width="5" opacity="0.48"/>
  </g>
  <rect y="522" width="1600" height="378" fill="url(#caption-gradient)"/>
  <g font-family="Inter, ui-sans-serif, system-ui, sans-serif">
    <text x="128" y="624" fill="#d4af37" font-size="25" font-weight="800" letter-spacing="6">ORIGINAL Smash STAGE</text>
    <text fill="#ffffff" font-size="72" font-weight="900" letter-spacing="-1">
      <tspan x="128" y="666">Bifrons Gate</tspan>
    </text>
    <text x="128" y="765.76" fill="#dce8f5" font-size="24" font-weight="650" letter-spacing="2">Imperium Aeternum · OVERLOAD</text>
    <rect x="128" y="791.76" width="384" height="7" rx="3" fill="#c0392b"/>
  </g>
</svg>
