<?xml version="1.0" encoding="UTF-8"?>
<svg xmlns="http://www.w3.org/2000/svg" viewBox="0 0 768 1024" width="768" height="1024" role="img" aria-labelledby="visual-title visual-description" focusable="false" data-original-visual="true" data-kind="hero">
  <title id="visual-title">Anton Rook</title>
  <desc id="visual-description">Original hero portrait for Anton Rook from Iron Tempest.</desc>
  <defs>
    <linearGradient id="background-gradient" x1="0" y1="0" x2="1" y2="1">
      <stop offset="0%" stop-color="#3a3a35"/>
      <stop offset="56%" stop-color="#171611"/>
      <stop offset="100%" stop-color="#4a3b2d"/>
    </linearGradient>
    <radialGradient id="core-gradient" cx="50%" cy="45%" r="58%">
      <stop offset="0%" stop-color="#ffffff" stop-opacity="0.92"/>
      <stop offset="36%" stop-color="#d48336" stop-opacity="0.82"/>
      <stop offset="100%" stop-color="#d9483b" stop-opacity="0.08"/>
    </radialGradient>
    <linearGradient id="subject-gradient" x1="0" y1="0" x2="1" y2="1">
      <stop offset="0%" stop-color="#d9483b"/>
      <stop offset="100%" stop-color="#d48336"/>
    </linearGradient>
    <linearGradient id="caption-gradient" x1="0" y1="0" x2="0" y2="1">
      <stop offset="0%" stop-color="#171611" stop-opacity="0"/>
      <stop offset="34%" stop-color="#171611" stop-opacity="0.82"/>
      <stop offset="100%" stop-color="#171611"/>
    </linearGradient>
  </defs>
  <rect width="768" height="1024" fill="url(#background-gradient)"/>
  <g aria-hidden="true">
    <circle cx="320.11" cy="438.07" r="2.96" fill="#d9483b" opacity="0.54"/>
    <circle cx="244.13" cy="1013.53" r="2.93" fill="#d48336" opacity="0.69"/>
    <circle cx="212.32" cy="545.03" r="1.1" fill="#d48336" opacity="0.42"/>
    <circle cx="358.81" cy="577.39" r="1.25" fill="#d9483b" opacity="0.72"/>
    <circle cx="629.08" cy="804.75" r="1.33" fill="#d48336" opacity="0.65"/>
    <circle cx="302.14" cy="178.87" r="2.98" fill="#d48336" opacity="0.26"/>
    <circle cx="390.88" cy="917.35" r="2.79" fill="#d9483b" opacity="0.46"/>
    <circle cx="616.7" cy="953.82" r="1.14" fill="#d48336" opacity="0.41"/>
    <circle cx="301.92" cy="863.31" r="2.38" fill="#d48336" opacity="0.37"/>
    <circle cx="451.77" cy="763.71" r="2.36" fill="#d9483b" opacity="0.59"/>
    <circle cx="209.42" cy="227.23" r="2.5" fill="#d48336" opacity="0.23"/>
    <circle cx="276.76" cy="468.67" r="2.76" fill="#d48336" opacity="0.58"/>
    <circle cx="245.15" cy="614.96" r="2.81" fill="#d9483b" opacity="0.47"/>
    <circle cx="559.84" cy="283.9" r="2.09" fill="#d48336" opacity="0.32"/>
    <circle cx="117.66" cy="309.03" r="2.59" fill="#d48336" opacity="0.54"/>
    <circle cx="414.72" cy="119.12" r="1.5" fill="#d9483b" opacity="0.32"/>
    <circle cx="722.42" cy="962.93" r="1.05" fill="#d48336" opacity="0.68"/>
    <circle cx="366.07" cy="398.29" r="2.77" fill="#d48336" opacity="0.72"/>
    <circle cx="30.93" cy="383.37" r="1.77" fill="#d9483b" opacity="0.44"/>
    <circle cx="691.79" cy="948.33" r="2.29" fill="#d48336" opacity="0.54"/>
    <circle cx="608.62" cy="962.4" r="1.33" fill="#d48336" opacity="0.22"/>
    <circle cx="96.25" cy="736.53" r="1.34" fill="#d9483b" opacity="0.7"/>
    <circle cx="644.64" cy="891.65" r="1.46" fill="#d48336" opacity="0.23"/>
    <circle cx="42.8" cy="688.84" r="1.89" fill="#d48336" opacity="0.52"/>
    <circle cx="316.15" cy="716.61" r="1.05" fill="#d9483b" opacity="0.4"/>
    <circle cx="53.08" cy="231.74" r="2.05" fill="#d48336" opacity="0.5"/>
    <circle cx="487.53" cy="567.52" r="1.04" fill="#d48336" opacity="0.5"/>
    <circle cx="332.82" cy="437.29" r="2.34" fill="#d9483b" opacity="0.7"/>
    <circle cx="580.92" cy="913.76" r="1.8" fill="#d48336" opacity="0.43"/>
    <circle cx="577.29" cy="585.33" r="1.21" fill="#d48336" opacity="0.35"/>
  </g>
  <g aria-hidden="true" opacity="0.74">
    <path d="M 0 -102.4 L -38.47 1126.4" stroke="#d9483b" stroke-width="4.14" opacity="0.27"/>
    <path d="M 64 -102.4 L 49.58 1126.4" stroke="#d48336" stroke-width="9.52" opacity="0.3"/>
    <path d="M 128 -102.4 L 158.41 1126.4" stroke="#d48336" stroke-width="3.64" opacity="0.14"/>
    <path d="M 192 -102.4 L 148.11 1126.4" stroke="#d9483b" stroke-width="6.51" opacity="0.34"/>
    <path d="M 256 -102.4 L 231.96 1126.4" stroke="#d48336" stroke-width="5.15" opacity="0.31"/>
    <path d="M 320 -102.4 L 356.52 1126.4" stroke="#d48336" stroke-width="5.06" opacity="0.2"/>
    <path d="M 384 -102.4 L 387.49 1126.4" stroke="#d9483b" stroke-width="3.08" opacity="0.37"/>
    <path d="M 448 -102.4 L 403.18 1126.4" stroke="#d48336" stroke-width="5.11" opacity="0.34"/>
    <path d="M 512 -102.4 L 523.43 1126.4" stroke="#d48336" stroke-width="5.73" opacity="0.31"/>
    <path d="M 576 -102.4 L 643.87 1126.4" stroke="#d9483b" stroke-width="5.61" opacity="0.25"/>
    <path d="M 640 -102.4 L 624.29 1126.4" stroke="#d48336" stroke-width="2.12" opacity="0.24"/>
    <path d="M 704 -102.4 L 765.12 1126.4" stroke="#d48336" stroke-width="5.25" opacity="0.13"/>
    <path d="M 768 -102.4 L 810.15 1126.4" stroke="#d9483b" stroke-width="8.26" opacity="0.38"/>
  </g>
  <g aria-hidden="true">
    <circle cx="354.94" cy="323.16" r="168.32" fill="none" stroke="#d9483b" stroke-width="5" opacity="0.38"/>
    <circle cx="354.94" cy="323.16" r="88.59" fill="url(#subject-gradient)" stroke="#d48336" stroke-width="5"/>
    <path d="M 122.78 716.8 Q 169.21 491.52 354.94 466.71 Q 540.67 491.52 587.1 716.8 Z" fill="url(#subject-gradient)" stroke="#d48336" stroke-width="6"/>
    <path d="M 132.22 624.64 L 593.02 368.64" stroke="#d9483b" stroke-width="14" stroke-linecap="round" opacity="0.82" transform="rotate(-4.54 354.94 512)"/>
  </g>
  <rect y="593.92" width="768" height="430.08" fill="url(#caption-gradient)"/>
  <g font-family="Inter, ui-sans-serif, system-ui, sans-serif">
    <text x="76.8" y="705.52" fill="#d48336" font-size="22" font-weight="800" letter-spacing="4">ORIGINAL HERO</text>
    <text fill="#ffffff" font-size="58" font-weight="900" letter-spacing="-1">
      <tspan x="76.8" y="747.52">Anton Rook</tspan>
    </text>
    <text x="76.8" y="828.16" fill="#dce8f5" font-size="20" font-weight="650" letter-spacing="2">Iron Tempest</text>
    <rect x="76.8" y="854.16" width="261.12" height="6" rx="3" fill="#d9483b"/>
  </g>
</svg>
