<?xml version="1.0" encoding="UTF-8"?>
<svg xmlns="http://www.w3.org/2000/svg" viewBox="0 0 768 768" width="768" height="768" role="img" aria-labelledby="visual-title visual-description" focusable="false" data-original-visual="true" data-kind="item">
  <title id="visual-title">Name Seed</title>
  <desc id="visual-description">Original item artwork for Name Seed from Mythos Primordia.</desc>
  <defs>
    <linearGradient id="background-gradient" x1="0" y1="0" x2="1" y2="1">
      <stop offset="0%" stop-color="#110b2d"/>
      <stop offset="56%" stop-color="#010104"/>
      <stop offset="100%" stop-color="#4b3f2f"/>
    </linearGradient>
    <radialGradient id="core-gradient" cx="50%" cy="45%" r="58%">
      <stop offset="0%" stop-color="#ffffff" stop-opacity="0.92"/>
      <stop offset="36%" stop-color="#7df9ff" stop-opacity="0.82"/>
      <stop offset="100%" stop-color="#ff70a6" stop-opacity="0.08"/>
    </radialGradient>
    <linearGradient id="subject-gradient" x1="0" y1="0" x2="1" y2="1">
      <stop offset="0%" stop-color="#ff70a6"/>
      <stop offset="100%" stop-color="#7df9ff"/>
    </linearGradient>
    <linearGradient id="caption-gradient" x1="0" y1="0" x2="0" y2="1">
      <stop offset="0%" stop-color="#010104" stop-opacity="0"/>
      <stop offset="34%" stop-color="#010104" stop-opacity="0.82"/>
      <stop offset="100%" stop-color="#010104"/>
    </linearGradient>
  </defs>
  <rect width="768" height="768" fill="url(#background-gradient)"/>
  <g aria-hidden="true">
    <circle cx="553.87" cy="763.85" r="2.73" fill="#ff70a6" opacity="0.64"/>
    <circle cx="158.97" cy="734.59" r="2.13" fill="#7df9ff" opacity="0.28"/>
    <circle cx="334.67" cy="22.79" r="2.78" fill="#7df9ff" opacity="0.65"/>
    <circle cx="659.44" cy="730" r="2.28" fill="#ff70a6" opacity="0.4"/>
    <circle cx="713.64" cy="209" r="1.21" fill="#7df9ff" opacity="0.61"/>
    <circle cx="43.65" cy="599.57" r="1.87" fill="#7df9ff" opacity="0.66"/>
    <circle cx="679.2" cy="600.2" r="1.24" fill="#ff70a6" opacity="0.31"/>
    <circle cx="159.66" cy="535.49" r="2.82" fill="#7df9ff" opacity="0.24"/>
    <circle cx="411.46" cy="25.21" r="2.45" fill="#7df9ff" opacity="0.24"/>
    <circle cx="681.8" cy="190.71" r="1.31" fill="#ff70a6" opacity="0.42"/>
    <circle cx="422.39" cy="220.64" r="2.14" fill="#7df9ff" opacity="0.58"/>
    <circle cx="298.75" cy="634.07" r="2.46" fill="#7df9ff" opacity="0.61"/>
    <circle cx="115.78" cy="564.35" r="1.34" fill="#ff70a6" opacity="0.4"/>
    <circle cx="485.78" cy="552.64" r="1.47" fill="#7df9ff" opacity="0.21"/>
    <circle cx="87.63" cy="649.91" r="2.36" fill="#7df9ff" opacity="0.56"/>
    <circle cx="739.65" cy="761.24" r="1.55" fill="#ff70a6" opacity="0.44"/>
    <circle cx="568.49" cy="23.35" r="2.25" fill="#7df9ff" opacity="0.73"/>
    <circle cx="206.47" cy="445.48" r="2.43" fill="#7df9ff" opacity="0.39"/>
    <circle cx="698.54" cy="172.26" r="1.07" fill="#ff70a6" opacity="0.66"/>
    <circle cx="478.17" cy="454.81" r="1.97" fill="#7df9ff" opacity="0.71"/>
    <circle cx="65.98" cy="218.55" r="2.71" fill="#7df9ff" opacity="0.46"/>
    <circle cx="292.95" cy="748.34" r="2.33" fill="#ff70a6" opacity="0.7"/>
    <circle cx="283.13" cy="142.26" r="2.61" fill="#7df9ff" opacity="0.27"/>
    <circle cx="648.08" cy="469.71" r="1.17" fill="#7df9ff" opacity="0.36"/>
    <circle cx="301.75" cy="490.25" r="2.43" fill="#ff70a6" opacity="0.61"/>
    <circle cx="131.2" cy="205.09" r="1.09" fill="#7df9ff" opacity="0.24"/>
    <circle cx="526.69" cy="595.66" r="1.28" fill="#7df9ff" opacity="0.59"/>
    <circle cx="740.97" cy="124.24" r="1.88" fill="#ff70a6" opacity="0.69"/>
    <circle cx="692.87" cy="678.85" r="1" fill="#7df9ff" opacity="0.42"/>
    <circle cx="190.46" cy="276.19" r="1.8" fill="#7df9ff" opacity="0.62"/>
  </g>
  <g aria-hidden="true" opacity="0.74">
    <circle cx="456.85" cy="344.74" r="53.76" fill="none" stroke="#ff70a6" stroke-width="1.5" stroke-dasharray="8 12" opacity="0.48"/>
    <circle cx="456.85" cy="344.74" r="80.64" fill="none" stroke="#7df9ff" stroke-width="2.5" stroke-dasharray="10 13" opacity="0.45"/>
    <circle cx="456.85" cy="344.74" r="107.52" fill="none" stroke="#7df9ff" stroke-width="3.5" stroke-dasharray="12 14" opacity="0.43"/>
    <circle cx="456.85" cy="344.74" r="134.4" fill="none" stroke="#ff70a6" stroke-width="4.5" stroke-dasharray="14 15" opacity="0.4"/>
    <circle cx="456.85" cy="344.74" r="161.28" fill="none" stroke="#7df9ff" stroke-width="1.5" stroke-dasharray="16 16" opacity="0.38"/>
    <circle cx="456.85" cy="344.74" r="188.16" fill="none" stroke="#7df9ff" stroke-width="2.5" stroke-dasharray="18 17" opacity="0.35"/>
    <circle cx="456.85" cy="344.74" r="215.04" fill="none" stroke="#ff70a6" stroke-width="3.5" stroke-dasharray="20 18" opacity="0.33"/>
    <circle cx="456.85" cy="344.74" r="241.92" fill="none" stroke="#7df9ff" stroke-width="4.5" stroke-dasharray="22 19" opacity="0.3"/>
    <circle cx="456.85" cy="344.74" r="268.8" fill="none" stroke="#7df9ff" stroke-width="1.5" stroke-dasharray="24 20" opacity="0.28"/>
    <circle cx="456.85" cy="344.74" r="295.68" fill="none" stroke="#ff70a6" stroke-width="2.5" stroke-dasharray="26 21" opacity="0.26"/>
    <circle cx="456.85" cy="344.74" r="322.56" fill="none" stroke="#7df9ff" stroke-width="3.5" stroke-dasharray="28 22" opacity="0.23"/>
    <circle cx="456.85" cy="344.74" r="349.44" fill="none" stroke="#7df9ff" stroke-width="4.5" stroke-dasharray="30 23" opacity="0.2"/>
  </g>
  <g aria-hidden="true">
    <circle cx="367.38" cy="326.04" r="249.76" fill="none" stroke="#7df9ff" stroke-width="5" stroke-dasharray="16 13" opacity="0.48"/>
    <polygon points="214.44,345.45 274.1,203.29 427.05,183.88 520.32,306.63 460.66,448.79 307.71,468.2" fill="url(#subject-gradient)" stroke="#ff70a6" stroke-width="8"/>
    <polygon points="380.76,398.82 297.66,301.24 423.72,278.06" fill="#010104" stroke="#7df9ff" stroke-width="5"/>
  </g>
  <rect y="445.44" width="768" height="322.56" fill="url(#caption-gradient)"/>
  <g font-family="Inter, ui-sans-serif, system-ui, sans-serif">
    <text x="76.8" y="495.6" fill="#7df9ff" font-size="22" font-weight="800" letter-spacing="4">ORIGINAL ITEM</text>
    <text fill="#ffffff" font-size="49" font-weight="900" letter-spacing="-1">
      <tspan x="76.8" y="537.6">Name Seed</tspan>
    </text>
    <text x="76.8" y="608.52" fill="#dce8f5" font-size="20" font-weight="650" letter-spacing="2">Mythos Primordia · TEMPO</text>
    <rect x="76.8" y="634.52" width="261.12" height="6" rx="3" fill="#ff70a6"/>
  </g>
</svg>
