<?xml version="1.0" encoding="UTF-8"?>
<svg xmlns="http://www.w3.org/2000/svg" viewBox="0 0 1600 900" width="1600" height="900" role="img" aria-labelledby="visual-title visual-description" focusable="false" data-original-visual="true" data-kind="stage">
  <title id="visual-title">Ilyr Orbital Assembly</title>
  <desc id="visual-description">Original stage artwork for Ilyr Orbital Assembly in Ilyr Concordat.</desc>
  <defs>
    <linearGradient id="background-gradient" x1="0" y1="0" x2="1" y2="1">
      <stop offset="0%" stop-color="#081c2d"/>
      <stop offset="56%" stop-color="#010306"/>
      <stop offset="100%" stop-color="#243447"/>
    </linearGradient>
    <radialGradient id="core-gradient" cx="50%" cy="45%" r="58%">
      <stop offset="0%" stop-color="#ffffff" stop-opacity="0.92"/>
      <stop offset="36%" stop-color="#77f2ff" stop-opacity="0.82"/>
      <stop offset="100%" stop-color="#c77dff" stop-opacity="0.08"/>
    </radialGradient>
    <linearGradient id="subject-gradient" x1="0" y1="0" x2="1" y2="1">
      <stop offset="0%" stop-color="#c77dff"/>
      <stop offset="100%" stop-color="#77f2ff"/>
    </linearGradient>
    <linearGradient id="caption-gradient" x1="0" y1="0" x2="0" y2="1">
      <stop offset="0%" stop-color="#010306" stop-opacity="0"/>
      <stop offset="34%" stop-color="#010306" stop-opacity="0.82"/>
      <stop offset="100%" stop-color="#010306"/>
    </linearGradient>
  </defs>
  <rect width="1600" height="900" fill="url(#background-gradient)"/>
  <g aria-hidden="true">
    <circle cx="478.93" cy="514.23" r="1.41" fill="#c77dff" opacity="0.55"/>
    <circle cx="161.54" cy="426.11" r="3.83" fill="#77f2ff" opacity="0.69"/>
    <circle cx="437.47" cy="655.45" r="4.38" fill="#77f2ff" opacity="0.6"/>
    <circle cx="531.26" cy="400.9" r="3.17" fill="#c77dff" opacity="0.44"/>
    <circle cx="1154.4" cy="316.27" r="3.95" fill="#77f2ff" opacity="0.25"/>
    <circle cx="1065.53" cy="141.97" r="2.73" fill="#77f2ff" opacity="0.5"/>
    <circle cx="441.79" cy="527.55" r="1.87" fill="#c77dff" opacity="0.38"/>
    <circle cx="1225.17" cy="403.79" r="2" fill="#77f2ff" opacity="0.34"/>
    <circle cx="1060.3" cy="794.07" r="3.44" fill="#77f2ff" opacity="0.38"/>
    <circle cx="170.9" cy="623.38" r="2.36" fill="#c77dff" opacity="0.56"/>
    <circle cx="138.48" cy="797.81" r="3.8" fill="#77f2ff" opacity="0.67"/>
    <circle cx="1130.11" cy="452.28" r="2.45" fill="#77f2ff" opacity="0.53"/>
    <circle cx="215.04" cy="67.52" r="4.22" fill="#c77dff" opacity="0.47"/>
    <circle cx="1476.29" cy="116.5" r="1.28" fill="#77f2ff" opacity="0.4"/>
    <circle cx="1479.89" cy="830.99" r="4.5" fill="#77f2ff" opacity="0.41"/>
    <circle cx="1542.56" cy="575.8" r="3.92" fill="#c77dff" opacity="0.43"/>
    <circle cx="401.74" cy="130.37" r="2.75" fill="#77f2ff" opacity="0.34"/>
    <circle cx="1574.13" cy="472.96" r="1.41" fill="#77f2ff" opacity="0.55"/>
    <circle cx="172.26" cy="164.78" r="2.16" fill="#c77dff" opacity="0.56"/>
    <circle cx="533.4" cy="71.53" r="3.63" fill="#77f2ff" opacity="0.72"/>
    <circle cx="144.23" cy="786.32" r="1.55" fill="#77f2ff" opacity="0.42"/>
    <circle cx="1453.67" cy="881.65" r="4.58" fill="#c77dff" opacity="0.38"/>
    <circle cx="818.94" cy="311.26" r="4.13" fill="#77f2ff" opacity="0.24"/>
    <circle cx="1148.02" cy="461.46" r="4.09" fill="#77f2ff" opacity="0.38"/>
    <circle cx="320.28" cy="491.45" r="4.24" fill="#c77dff" opacity="0.23"/>
    <circle cx="1043.02" cy="846.63" r="3.35" fill="#77f2ff" opacity="0.7"/>
    <circle cx="1493.05" cy="473.43" r="4.61" fill="#77f2ff" opacity="0.3"/>
    <circle cx="246.64" cy="565.09" r="3.3" fill="#c77dff" opacity="0.57"/>
    <circle cx="1106" cy="310.79" r="3.8" fill="#77f2ff" opacity="0.57"/>
    <circle cx="248.43" cy="828.23" r="1.67" fill="#77f2ff" opacity="0.66"/>
    <circle cx="157.74" cy="598.65" r="2.53" fill="#c77dff" opacity="0.46"/>
    <circle cx="1312.28" cy="663.78" r="3.01" fill="#77f2ff" opacity="0.72"/>
    <circle cx="1523.53" cy="414.47" r="1.6" fill="#77f2ff" opacity="0.56"/>
    <circle cx="97.13" cy="588.87" r="1.71" fill="#c77dff" opacity="0.24"/>
    <circle cx="1211.23" cy="16.58" r="1.61" fill="#77f2ff" opacity="0.61"/>
    <circle cx="1018.03" cy="1.92" r="3.08" fill="#77f2ff" opacity="0.35"/>
    <circle cx="839.43" cy="432.74" r="4.26" fill="#c77dff" opacity="0.54"/>
    <circle cx="102.19" cy="868.77" r="1.08" fill="#77f2ff" opacity="0.57"/>
    <circle cx="1332.36" cy="345.42" r="4.79" fill="#77f2ff" opacity="0.48"/>
    <circle cx="1379.24" cy="522.46" r="1.32" fill="#c77dff" opacity="0.57"/>
    <circle cx="1024.23" cy="1.66" r="1.73" fill="#77f2ff" opacity="0.58"/>
    <circle cx="885.46" cy="404.84" r="1.43" fill="#77f2ff" opacity="0.38"/>
    <circle cx="1183.97" cy="534.57" r="4.08" fill="#c77dff" opacity="0.54"/>
    <circle cx="1220.66" cy="711.91" r="2.37" fill="#77f2ff" opacity="0.54"/>
  </g>
  <g aria-hidden="true" opacity="0.74">
    <path d="M 0 -90 L 10.93 990" stroke="#c77dff" stroke-width="9.88" opacity="0.19"/>
    <path d="M 133.33 -90 L 238.85 990" stroke="#77f2ff" stroke-width="8.77" opacity="0.24"/>
    <path d="M 266.67 -90 L 268.86 990" stroke="#77f2ff" stroke-width="4.07" opacity="0.29"/>
    <path d="M 400 -90 L 405.74 990" stroke="#c77dff" stroke-width="3.79" opacity="0.33"/>
    <path d="M 533.33 -90 L 510.17 990" stroke="#77f2ff" stroke-width="3.9" opacity="0.21"/>
    <path d="M 666.67 -90 L 741.44 990" stroke="#77f2ff" stroke-width="9.94" opacity="0.15"/>
    <path d="M 800 -90 L 766.38 990" stroke="#c77dff" stroke-width="3.6" opacity="0.24"/>
    <path d="M 933.33 -90 L 1046.04 990" stroke="#77f2ff" stroke-width="2.54" opacity="0.38"/>
    <path d="M 1066.67 -90 L 1107.25 990" stroke="#77f2ff" stroke-width="5.32" opacity="0.2"/>
    <path d="M 1200 -90 L 1246.13 990" stroke="#c77dff" stroke-width="4.26" opacity="0.33"/>
    <path d="M 1333.33 -90 L 1202.32 990" stroke="#77f2ff" stroke-width="9.27" opacity="0.37"/>
    <path d="M 1466.67 -90 L 1334.28 990" stroke="#77f2ff" stroke-width="9.76" opacity="0.33"/>
    <path d="M 1600 -90 L 1546.99 990" stroke="#c77dff" stroke-width="7.59" opacity="0.27"/>
  </g>
  <g aria-hidden="true">
    <circle cx="1044.59" cy="227.21" r="81" fill="url(#core-gradient)" opacity="0.86"/>
    <circle cx="1044.59" cy="227.21" r="117.45" fill="none" stroke="#77f2ff" stroke-width="4" opacity="0.38"/>
    <polygon points="0,900 0,504 177.78,434.32 355.56,498.98 533.33,477.2 711.11,481.89 888.89,461.06 1066.67,393.77 1244.44,446.02 1422.22,462.31 1600,504 1600,900" fill="#243447" opacity="0.94"/>
    <path d="M 0 504 L 1600 504" stroke="#77f2ff" stroke-width="5" opacity="0.48"/>
  </g>
  <rect y="522" width="1600" height="378" fill="url(#caption-gradient)"/>
  <g font-family="Inter, ui-sans-serif, system-ui, sans-serif">
    <text x="128" y="624" fill="#77f2ff" font-size="25" font-weight="800" letter-spacing="6">ORIGINAL Tactics STAGE</text>
    <text fill="#ffffff" font-size="72" font-weight="900" letter-spacing="-1">
      <tspan x="128" y="666">Ilyr Orbital Assembly</tspan>
    </text>
    <text x="128" y="765.76" fill="#dce8f5" font-size="24" font-weight="650" letter-spacing="2">Ilyr Concordat · CONTROL</text>
    <rect x="128" y="791.76" width="384" height="7" rx="3" fill="#c77dff"/>
  </g>
</svg>
