<?xml version="1.0" encoding="UTF-8"?>
<svg xmlns="http://www.w3.org/2000/svg" viewBox="0 0 1600 900" width="1600" height="900" role="img" aria-labelledby="visual-title visual-description" focusable="false" data-original-visual="true" data-kind="stage">
  <title id="visual-title">Grand Clock Inner Face</title>
  <desc id="visual-description">Original stage artwork for Grand Clock Inner Face in Meridian Clockwork.</desc>
  <defs>
    <linearGradient id="background-gradient" x1="0" y1="0" x2="1" y2="1">
      <stop offset="0%" stop-color="#18304a"/>
      <stop offset="56%" stop-color="#f0c879"/>
      <stop offset="100%" stop-color="#4a3728"/>
    </linearGradient>
    <radialGradient id="core-gradient" cx="50%" cy="45%" r="58%">
      <stop offset="0%" stop-color="#ffffff" stop-opacity="0.92"/>
      <stop offset="36%" stop-color="#f6d68a" stop-opacity="0.82"/>
      <stop offset="100%" stop-color="#2e79b9" stop-opacity="0.08"/>
    </radialGradient>
    <linearGradient id="subject-gradient" x1="0" y1="0" x2="1" y2="1">
      <stop offset="0%" stop-color="#2e79b9"/>
      <stop offset="100%" stop-color="#f6d68a"/>
    </linearGradient>
    <linearGradient id="caption-gradient" x1="0" y1="0" x2="0" y2="1">
      <stop offset="0%" stop-color="#f0c879" stop-opacity="0"/>
      <stop offset="34%" stop-color="#f0c879" stop-opacity="0.82"/>
      <stop offset="100%" stop-color="#f0c879"/>
    </linearGradient>
  </defs>
  <rect width="1600" height="900" fill="url(#background-gradient)"/>
  <g aria-hidden="true">
    <circle cx="43.11" cy="456.3" r="3.15" fill="#2e79b9" opacity="0.57"/>
    <circle cx="48.27" cy="292.49" r="2.89" fill="#f6d68a" opacity="0.73"/>
    <circle cx="1316.67" cy="95.08" r="1.12" fill="#f6d68a" opacity="0.7"/>
    <circle cx="706.55" cy="857.33" r="2.47" fill="#2e79b9" opacity="0.32"/>
    <circle cx="1073.29" cy="827" r="3.5" fill="#f6d68a" opacity="0.43"/>
    <circle cx="724.58" cy="748.62" r="2.13" fill="#f6d68a" opacity="0.22"/>
    <circle cx="1184.96" cy="805.99" r="3.55" fill="#2e79b9" opacity="0.3"/>
    <circle cx="483.78" cy="63.11" r="2.99" fill="#f6d68a" opacity="0.38"/>
    <circle cx="601.21" cy="808.92" r="3.64" fill="#f6d68a" opacity="0.72"/>
    <circle cx="1134.72" cy="816.6" r="1.22" fill="#2e79b9" opacity="0.23"/>
    <circle cx="267.68" cy="511.5" r="2.85" fill="#f6d68a" opacity="0.48"/>
    <circle cx="120.67" cy="676.59" r="4.22" fill="#f6d68a" opacity="0.58"/>
    <circle cx="1306.34" cy="174.65" r="1" fill="#2e79b9" opacity="0.41"/>
    <circle cx="1172.64" cy="40.12" r="4.37" fill="#f6d68a" opacity="0.3"/>
    <circle cx="825.72" cy="387.04" r="3.13" fill="#f6d68a" opacity="0.44"/>
    <circle cx="1273.44" cy="537.9" r="2.56" fill="#2e79b9" opacity="0.41"/>
    <circle cx="1578.58" cy="735.28" r="3.88" fill="#f6d68a" opacity="0.48"/>
    <circle cx="1238.67" cy="375.95" r="4.44" fill="#f6d68a" opacity="0.62"/>
    <circle cx="271.21" cy="514.94" r="2.39" fill="#2e79b9" opacity="0.65"/>
    <circle cx="245.5" cy="586.83" r="3.99" fill="#f6d68a" opacity="0.59"/>
    <circle cx="383.62" cy="385.7" r="1.43" fill="#f6d68a" opacity="0.58"/>
    <circle cx="1343.93" cy="340.53" r="2.31" fill="#2e79b9" opacity="0.19"/>
    <circle cx="974.09" cy="496.95" r="3.8" fill="#f6d68a" opacity="0.4"/>
    <circle cx="794.7" cy="413.13" r="2.77" fill="#f6d68a" opacity="0.59"/>
    <circle cx="451.03" cy="514.44" r="1.61" fill="#2e79b9" opacity="0.72"/>
    <circle cx="1020.9" cy="87.9" r="1.41" fill="#f6d68a" opacity="0.39"/>
    <circle cx="1169.88" cy="385.47" r="3.91" fill="#f6d68a" opacity="0.36"/>
    <circle cx="529.42" cy="449.51" r="1.22" fill="#2e79b9" opacity="0.5"/>
    <circle cx="992.77" cy="853.77" r="4.77" fill="#f6d68a" opacity="0.26"/>
    <circle cx="716.02" cy="810.76" r="1.43" fill="#f6d68a" opacity="0.59"/>
    <circle cx="439.47" cy="808.92" r="2.26" fill="#2e79b9" opacity="0.23"/>
    <circle cx="1592.98" cy="140.54" r="2.01" fill="#f6d68a" opacity="0.24"/>
    <circle cx="963.06" cy="553.34" r="3.48" fill="#f6d68a" opacity="0.22"/>
    <circle cx="928.6" cy="506.58" r="3.66" fill="#2e79b9" opacity="0.37"/>
    <circle cx="719.35" cy="792.86" r="4.14" fill="#f6d68a" opacity="0.27"/>
    <circle cx="1429.49" cy="428.48" r="3.41" fill="#f6d68a" opacity="0.52"/>
    <circle cx="1563.07" cy="584.9" r="2.79" fill="#2e79b9" opacity="0.44"/>
    <circle cx="687.24" cy="137.87" r="2.26" fill="#f6d68a" opacity="0.48"/>
    <circle cx="1308.19" cy="6.53" r="1.85" fill="#f6d68a" opacity="0.43"/>
    <circle cx="1443.68" cy="719.39" r="2.78" fill="#2e79b9" opacity="0.38"/>
    <circle cx="386.93" cy="132.33" r="2.17" fill="#f6d68a" opacity="0.28"/>
    <circle cx="240.47" cy="691.92" r="2.47" fill="#f6d68a" opacity="0.43"/>
    <circle cx="1210.85" cy="776.32" r="3.59" fill="#2e79b9" opacity="0.52"/>
    <circle cx="544.11" cy="407.94" r="2.12" fill="#f6d68a" opacity="0.23"/>
  </g>
  <g aria-hidden="true" opacity="0.74">
    <circle cx="919.18" cy="436.02" r="63" fill="none" stroke="#2e79b9" stroke-width="1.5" stroke-dasharray="8 12" opacity="0.48"/>
    <circle cx="919.18" cy="436.02" r="94.5" fill="none" stroke="#f6d68a" stroke-width="2.5" stroke-dasharray="10 13" opacity="0.45"/>
    <circle cx="919.18" cy="436.02" r="126" fill="none" stroke="#f6d68a" stroke-width="3.5" stroke-dasharray="12 14" opacity="0.43"/>
    <circle cx="919.18" cy="436.02" r="157.5" fill="none" stroke="#2e79b9" stroke-width="4.5" stroke-dasharray="14 15" opacity="0.4"/>
    <circle cx="919.18" cy="436.02" r="189" fill="none" stroke="#f6d68a" stroke-width="1.5" stroke-dasharray="16 16" opacity="0.38"/>
    <circle cx="919.18" cy="436.02" r="220.5" fill="none" stroke="#f6d68a" stroke-width="2.5" stroke-dasharray="18 17" opacity="0.35"/>
    <circle cx="919.18" cy="436.02" r="252" fill="none" stroke="#2e79b9" stroke-width="3.5" stroke-dasharray="20 18" opacity="0.33"/>
    <circle cx="919.18" cy="436.02" r="283.5" fill="none" stroke="#f6d68a" stroke-width="4.5" stroke-dasharray="22 19" opacity="0.3"/>
    <circle cx="919.18" cy="436.02" r="315" fill="none" stroke="#f6d68a" stroke-width="1.5" stroke-dasharray="24 20" opacity="0.28"/>
    <circle cx="919.18" cy="436.02" r="346.5" fill="none" stroke="#2e79b9" stroke-width="2.5" stroke-dasharray="26 21" opacity="0.26"/>
    <circle cx="919.18" cy="436.02" r="378" fill="none" stroke="#f6d68a" stroke-width="3.5" stroke-dasharray="28 22" opacity="0.23"/>
    <circle cx="919.18" cy="436.02" r="409.5" fill="none" stroke="#f6d68a" stroke-width="4.5" stroke-dasharray="30 23" opacity="0.2"/>
  </g>
  <g aria-hidden="true">
    <circle cx="1016.3" cy="258.52" r="81" fill="url(#core-gradient)" opacity="0.86"/>
    <circle cx="1016.3" cy="258.52" r="117.45" fill="none" stroke="#f6d68a" stroke-width="4" opacity="0.38"/>
    <polygon points="0,900 0,504 177.78,499.4 355.56,392.56 533.33,385.81 711.11,306.93 888.89,407.67 1066.67,330.74 1244.44,427.09 1422.22,484.09 1600,504 1600,900" fill="#4a3728" opacity="0.94"/>
    <path d="M 0 504 L 1600 504" stroke="#f6d68a" stroke-width="5" opacity="0.48"/>
  </g>
  <rect y="522" width="1600" height="378" fill="url(#caption-gradient)"/>
  <g font-family="Inter, ui-sans-serif, system-ui, sans-serif">
    <text x="128" y="624" fill="#f6d68a" font-size="25" font-weight="800" letter-spacing="6">ORIGINAL RPG STAGE</text>
    <text fill="#ffffff" font-size="72" font-weight="900" letter-spacing="-1">
      <tspan x="128" y="666">Grand Clock Inner Face</tspan>
    </text>
    <text x="128" y="765.76" fill="#dce8f5" font-size="24" font-weight="650" letter-spacing="2">Meridian Clockwork · SURVIVE</text>
    <rect x="128" y="791.76" width="384" height="7" rx="3" fill="#2e79b9"/>
  </g>
</svg>
