<?xml version="1.0" encoding="UTF-8"?>
<svg xmlns="http://www.w3.org/2000/svg" viewBox="0 0 768 768" width="768" height="768" role="img" aria-labelledby="visual-title visual-description" focusable="false" data-original-visual="true" data-kind="item">
  <title id="visual-title">Argos Crew</title>
  <desc id="visual-description">Original item artwork for Argos Crew from Aegea: War of the Moirai.</desc>
  <defs>
    <linearGradient id="background-gradient" x1="0" y1="0" x2="1" y2="1">
      <stop offset="0%" stop-color="#172a46"/>
      <stop offset="56%" stop-color="#03060d"/>
      <stop offset="100%" stop-color="#d7c7a1"/>
    </linearGradient>
    <radialGradient id="core-gradient" cx="50%" cy="45%" r="58%">
      <stop offset="0%" stop-color="#ffffff" stop-opacity="0.92"/>
      <stop offset="36%" stop-color="#54a0ff" stop-opacity="0.82"/>
      <stop offset="100%" stop-color="#9b59b6" stop-opacity="0.08"/>
    </radialGradient>
    <linearGradient id="subject-gradient" x1="0" y1="0" x2="1" y2="1">
      <stop offset="0%" stop-color="#9b59b6"/>
      <stop offset="100%" stop-color="#54a0ff"/>
    </linearGradient>
    <linearGradient id="caption-gradient" x1="0" y1="0" x2="0" y2="1">
      <stop offset="0%" stop-color="#03060d" stop-opacity="0"/>
      <stop offset="34%" stop-color="#03060d" stop-opacity="0.82"/>
      <stop offset="100%" stop-color="#03060d"/>
    </linearGradient>
  </defs>
  <rect width="768" height="768" fill="url(#background-gradient)"/>
  <g aria-hidden="true">
    <circle cx="538.67" cy="24.48" r="1.32" fill="#9b59b6" opacity="0.72"/>
    <circle cx="170.8" cy="27.49" r="2.63" fill="#54a0ff" opacity="0.27"/>
    <circle cx="608.1" cy="284.19" r="1.49" fill="#54a0ff" opacity="0.26"/>
    <circle cx="561.34" cy="594.02" r="1.83" fill="#9b59b6" opacity="0.45"/>
    <circle cx="100.59" cy="666.94" r="2.63" fill="#54a0ff" opacity="0.51"/>
    <circle cx="261.36" cy="472.1" r="2.63" fill="#54a0ff" opacity="0.53"/>
    <circle cx="254" cy="530.34" r="2.66" fill="#9b59b6" opacity="0.65"/>
    <circle cx="461.22" cy="51.47" r="1.32" fill="#54a0ff" opacity="0.4"/>
    <circle cx="442.54" cy="491.8" r="1.86" fill="#54a0ff" opacity="0.48"/>
    <circle cx="54.47" cy="365.39" r="2.8" fill="#9b59b6" opacity="0.59"/>
    <circle cx="710.86" cy="600.46" r="1.58" fill="#54a0ff" opacity="0.57"/>
    <circle cx="93.99" cy="377.57" r="1.87" fill="#54a0ff" opacity="0.49"/>
    <circle cx="353.76" cy="540.85" r="1.66" fill="#9b59b6" opacity="0.18"/>
    <circle cx="212.76" cy="626.91" r="1.22" fill="#54a0ff" opacity="0.23"/>
    <circle cx="677.35" cy="240.87" r="2.55" fill="#54a0ff" opacity="0.64"/>
    <circle cx="691.52" cy="597.19" r="2.57" fill="#9b59b6" opacity="0.48"/>
    <circle cx="36.5" cy="748.02" r="2.53" fill="#54a0ff" opacity="0.2"/>
    <circle cx="658.03" cy="187.48" r="1.56" fill="#54a0ff" opacity="0.65"/>
    <circle cx="225.02" cy="508.63" r="1.13" fill="#9b59b6" opacity="0.48"/>
    <circle cx="705.04" cy="250.67" r="2.88" fill="#54a0ff" opacity="0.2"/>
    <circle cx="130.54" cy="100.23" r="1.71" fill="#54a0ff" opacity="0.69"/>
    <circle cx="223.84" cy="355.29" r="1.56" fill="#9b59b6" opacity="0.24"/>
    <circle cx="262.06" cy="713.11" r="2.67" fill="#54a0ff" opacity="0.23"/>
    <circle cx="687.8" cy="150.49" r="1.16" fill="#54a0ff" opacity="0.24"/>
    <circle cx="157.46" cy="468.9" r="2.1" fill="#9b59b6" opacity="0.27"/>
    <circle cx="268.12" cy="647.96" r="1.2" fill="#54a0ff" opacity="0.55"/>
    <circle cx="413.03" cy="131.18" r="1.35" fill="#54a0ff" opacity="0.41"/>
    <circle cx="237.41" cy="600.66" r="1.88" fill="#9b59b6" opacity="0.39"/>
    <circle cx="659.76" cy="271.98" r="1.44" fill="#54a0ff" opacity="0.57"/>
    <circle cx="225.58" cy="716.04" r="2.97" fill="#54a0ff" opacity="0.19"/>
  </g>
  <g aria-hidden="true" opacity="0.74">
    <polygon points="380.86,357.21 378.48,250.82 471.8,301.96" fill="none" stroke="#9b59b6" stroke-width="2" opacity="0.38"/>
    <polygon points="330.27,340.51 373.2,223.22 490.49,266.15 447.56,383.44" fill="none" stroke="#54a0ff" stroke-width="2.5" opacity="0.35"/>
    <polygon points="303.46,346.21 336.56,214.89 471.68,205.79 522.09,331.49 418.12,418.27" fill="none" stroke="#9b59b6" stroke-width="3" opacity="0.33"/>
    <polygon points="398.76,444.93 281.94,364.07 293.56,222.47 422,161.73 538.82,242.59 527.2,384.19" fill="none" stroke="#54a0ff" stroke-width="3.5" opacity="0.3"/>
    <polygon points="424.09,471.73 287.27,419.05 243.15,279.22 324.96,157.55 471.09,145.66 571.51,252.49 550.59,397.61" fill="none" stroke="#9b59b6" stroke-width="4" opacity="0.28"/>
    <polygon points="579.59,401.93 240.39,400.57 411.17,107.49" fill="none" stroke="#54a0ff" stroke-width="4.5" opacity="0.26"/>
    <polygon points="632.87,313.52 400.19,525.82 187.89,293.14 420.57,80.84" fill="none" stroke="#9b59b6" stroke-width="5" opacity="0.23"/>
    <polygon points="653.91,358.05 433.59,551.85 181.2,402.2 245.53,115.92 537.68,88.63" fill="none" stroke="#54a0ff" stroke-width="5.5" opacity="0.2"/>
    <polygon points="359.9,575.16 149.73,395.53 200.21,123.7 460.86,31.5 671.03,211.13 620.55,482.96" fill="none" stroke="#9b59b6" stroke-width="6" opacity="0.18"/>
    <polygon points="229.06,546.54 107.18,313.21 213.62,72.44 468.22,5.53 679.27,162.88 687.84,425.98 487.48,596.73" fill="none" stroke="#54a0ff" stroke-width="6.5" opacity="0.15"/>
  </g>
  <g aria-hidden="true">
    <circle cx="365" cy="312.65" r="247.94" fill="none" stroke="#54a0ff" stroke-width="5" stroke-dasharray="16 13" opacity="0.48"/>
    <polygon points="316.15,457.69 227.9,380.67 219.96,263.8 296.98,175.55 413.85,167.61 502.1,244.63 510.04,361.5 433.02,449.75" fill="url(#subject-gradient)" stroke="#9b59b6" stroke-width="8"/>
    <polygon points="360.39,385.97 299.2,345.32 303.81,272 369.61,239.33 430.8,279.98 426.19,353.3" fill="#03060d" stroke="#54a0ff" stroke-width="5"/>
  </g>
  <rect y="445.44" width="768" height="322.56" fill="url(#caption-gradient)"/>
  <g font-family="Inter, ui-sans-serif, system-ui, sans-serif">
    <text x="76.8" y="495.6" fill="#54a0ff" font-size="22" font-weight="800" letter-spacing="4">ORIGINAL ITEM</text>
    <text fill="#ffffff" font-size="49" font-weight="900" letter-spacing="-1">
      <tspan x="76.8" y="537.6">Argos Crew</tspan>
    </text>
    <text x="76.8" y="608.52" fill="#dce8f5" font-size="20" font-weight="650" letter-spacing="2">Aegea: War of the Moirai · SUMMON</text>
    <rect x="76.8" y="634.52" width="261.12" height="6" rx="3" fill="#9b59b6"/>
  </g>
</svg>
