<?xml version="1.0" encoding="UTF-8"?>
<svg xmlns="http://www.w3.org/2000/svg" viewBox="0 0 768 768" width="768" height="768" role="img" aria-labelledby="visual-title visual-description" focusable="false" data-original-visual="true" data-kind="item">
  <title id="visual-title">Ceremonial Khopesh</title>
  <desc id="visual-description">Original item artwork for Ceremonial Khopesh from Kemet: The Devoured Sun.</desc>
  <defs>
    <linearGradient id="background-gradient" x1="0" y1="0" x2="1" y2="1">
      <stop offset="0%" stop-color="#120b22"/>
      <stop offset="56%" stop-color="#020105"/>
      <stop offset="100%" stop-color="#6b3e1f"/>
    </linearGradient>
    <radialGradient id="core-gradient" cx="50%" cy="45%" r="58%">
      <stop offset="0%" stop-color="#ffffff" stop-opacity="0.92"/>
      <stop offset="36%" stop-color="#f4d35e" stop-opacity="0.82"/>
      <stop offset="100%" stop-color="#22a6b3" stop-opacity="0.08"/>
    </radialGradient>
    <linearGradient id="subject-gradient" x1="0" y1="0" x2="1" y2="1">
      <stop offset="0%" stop-color="#22a6b3"/>
      <stop offset="100%" stop-color="#f4d35e"/>
    </linearGradient>
    <linearGradient id="caption-gradient" x1="0" y1="0" x2="0" y2="1">
      <stop offset="0%" stop-color="#020105" stop-opacity="0"/>
      <stop offset="34%" stop-color="#020105" stop-opacity="0.82"/>
      <stop offset="100%" stop-color="#020105"/>
    </linearGradient>
  </defs>
  <rect width="768" height="768" fill="url(#background-gradient)"/>
  <g aria-hidden="true">
    <circle cx="424.85" cy="348.95" r="1.6" fill="#22a6b3" opacity="0.64"/>
    <circle cx="758.21" cy="8.18" r="2.63" fill="#f4d35e" opacity="0.62"/>
    <circle cx="508.42" cy="254.18" r="2.4" fill="#f4d35e" opacity="0.34"/>
    <circle cx="263.15" cy="514.25" r="2.85" fill="#22a6b3" opacity="0.56"/>
    <circle cx="519.46" cy="99.75" r="2.34" fill="#f4d35e" opacity="0.29"/>
    <circle cx="513.3" cy="62.83" r="2.6" fill="#f4d35e" opacity="0.3"/>
    <circle cx="501.79" cy="49.48" r="1.83" fill="#22a6b3" opacity="0.48"/>
    <circle cx="105.47" cy="84.39" r="2.44" fill="#f4d35e" opacity="0.27"/>
    <circle cx="562.73" cy="716.73" r="2.52" fill="#f4d35e" opacity="0.41"/>
    <circle cx="67.63" cy="651.54" r="1.05" fill="#22a6b3" opacity="0.29"/>
    <circle cx="765.8" cy="610.22" r="1.3" fill="#f4d35e" opacity="0.22"/>
    <circle cx="232.39" cy="678.25" r="1.64" fill="#f4d35e" opacity="0.68"/>
    <circle cx="89.15" cy="146.55" r="1.29" fill="#22a6b3" opacity="0.51"/>
    <circle cx="407.5" cy="133.39" r="1.07" fill="#f4d35e" opacity="0.48"/>
    <circle cx="484.43" cy="167.83" r="1.01" fill="#f4d35e" opacity="0.46"/>
    <circle cx="250.89" cy="379.87" r="1.85" fill="#22a6b3" opacity="0.46"/>
    <circle cx="168.4" cy="6.37" r="2.31" fill="#f4d35e" opacity="0.58"/>
    <circle cx="514.25" cy="573.9" r="2.41" fill="#f4d35e" opacity="0.21"/>
    <circle cx="668.46" cy="617.91" r="2.96" fill="#22a6b3" opacity="0.53"/>
    <circle cx="621.53" cy="296.41" r="1.98" fill="#f4d35e" opacity="0.4"/>
    <circle cx="585.42" cy="369.67" r="1.29" fill="#f4d35e" opacity="0.51"/>
    <circle cx="415.1" cy="730.79" r="2.87" fill="#22a6b3" opacity="0.58"/>
    <circle cx="486.92" cy="145.64" r="1.82" fill="#f4d35e" opacity="0.59"/>
    <circle cx="287.94" cy="327.63" r="2.59" fill="#f4d35e" opacity="0.41"/>
    <circle cx="144.69" cy="414.06" r="1.89" fill="#22a6b3" opacity="0.5"/>
    <circle cx="221.47" cy="149.72" r="2.35" fill="#f4d35e" opacity="0.43"/>
    <circle cx="171.9" cy="309.55" r="1.71" fill="#f4d35e" opacity="0.42"/>
    <circle cx="582.48" cy="471.24" r="2.93" fill="#22a6b3" opacity="0.29"/>
    <circle cx="218.91" cy="316.71" r="1.99" fill="#f4d35e" opacity="0.27"/>
    <circle cx="129.12" cy="230.11" r="2.78" fill="#f4d35e" opacity="0.21"/>
  </g>
  <g aria-hidden="true" opacity="0.74">
    <rect x="34.56" y="34.56" width="698.88" height="698.88" rx="7.6" fill="none" stroke="#22a6b3" stroke-width="2" opacity="0.32" transform="rotate(6 384 384)"/>
    <rect x="69.12" y="69.12" width="629.76" height="629.76" rx="15.21" fill="none" stroke="#f4d35e" stroke-width="2.6" opacity="0.3" transform="rotate(14 384 384)"/>
    <rect x="103.68" y="103.68" width="560.64" height="560.64" rx="22.81" fill="none" stroke="#22a6b3" stroke-width="3.2" opacity="0.28" transform="rotate(22 384 384)"/>
    <rect x="138.24" y="138.24" width="491.52" height="491.52" rx="30.41" fill="none" stroke="#f4d35e" stroke-width="3.8" opacity="0.26" transform="rotate(30 384 384)"/>
    <rect x="172.8" y="172.8" width="422.4" height="422.4" rx="38.02" fill="none" stroke="#22a6b3" stroke-width="4.4" opacity="0.24" transform="rotate(38 384 384)"/>
    <rect x="207.36" y="207.36" width="353.28" height="353.28" rx="45.62" fill="none" stroke="#f4d35e" stroke-width="5" opacity="0.22" transform="rotate(46 384 384)"/>
    <rect x="241.92" y="241.92" width="284.16" height="284.16" rx="53.22" fill="none" stroke="#22a6b3" stroke-width="5.6" opacity="0.2" transform="rotate(54 384 384)"/>
    <rect x="276.48" y="276.48" width="215.04" height="215.04" rx="60.83" fill="none" stroke="#f4d35e" stroke-width="6.2" opacity="0.18" transform="rotate(62 384 384)"/>
    <rect x="311.04" y="311.04" width="145.92" height="145.92" rx="68.43" fill="none" stroke="#22a6b3" stroke-width="6.8" opacity="0.16" transform="rotate(70 384 384)"/>
  </g>
  <g aria-hidden="true">
    <circle cx="379.34" cy="323.48" r="230.22" fill="none" stroke="#f4d35e" stroke-width="5" stroke-dasharray="16 13" opacity="0.48"/>
    <polygon points="326.18,455.27 248.56,379.08 247.55,270.32 323.74,192.7 432.5,191.69 510.12,267.88 511.13,376.64 434.94,454.26" fill="url(#subject-gradient)" stroke="#22a6b3" stroke-width="8"/>
    <polygon points="340.7,379.69 349.99,261.91 447.34,328.84" fill="#020105" stroke="#f4d35e" stroke-width="5"/>
  </g>
  <rect y="445.44" width="768" height="322.56" fill="url(#caption-gradient)"/>
  <g font-family="Inter, ui-sans-serif, system-ui, sans-serif">
    <text x="76.8" y="495.6" fill="#f4d35e" font-size="22" font-weight="800" letter-spacing="4">ORIGINAL ITEM</text>
    <text fill="#ffffff" font-size="49" font-weight="900" letter-spacing="-1">
      <tspan x="76.8" y="537.6">Ceremonial Khopesh</tspan>
    </text>
    <text x="76.8" y="608.52" fill="#dce8f5" font-size="20" font-weight="650" letter-spacing="2">Kemet: The Devoured Sun · EQUIPMENT</text>
    <rect x="76.8" y="634.52" width="261.12" height="6" rx="3" fill="#22a6b3"/>
  </g>
</svg>
