<?xml version="1.0" encoding="UTF-8"?>
<svg xmlns="http://www.w3.org/2000/svg" viewBox="0 0 1600 900" width="1600" height="900" role="img" aria-labelledby="visual-title visual-description" focusable="false" data-original-visual="true" data-kind="stage">
  <title id="visual-title">Crown Foundry</title>
  <desc id="visual-description">Original stage artwork for Crown Foundry in The Aether Crown.</desc>
  <defs>
    <linearGradient id="background-gradient" x1="0" y1="0" x2="1" y2="1">
      <stop offset="0%" stop-color="#7a5b3a"/>
      <stop offset="56%" stop-color="#172333"/>
      <stop offset="100%" stop-color="#3d2d22"/>
    </linearGradient>
    <radialGradient id="core-gradient" cx="50%" cy="45%" r="58%">
      <stop offset="0%" stop-color="#ffffff" stop-opacity="0.92"/>
      <stop offset="36%" stop-color="#e7b85a" stop-opacity="0.82"/>
      <stop offset="100%" stop-color="#65d8ff" stop-opacity="0.08"/>
    </radialGradient>
    <linearGradient id="subject-gradient" x1="0" y1="0" x2="1" y2="1">
      <stop offset="0%" stop-color="#65d8ff"/>
      <stop offset="100%" stop-color="#e7b85a"/>
    </linearGradient>
    <linearGradient id="caption-gradient" x1="0" y1="0" x2="0" y2="1">
      <stop offset="0%" stop-color="#172333" stop-opacity="0"/>
      <stop offset="34%" stop-color="#172333" stop-opacity="0.82"/>
      <stop offset="100%" stop-color="#172333"/>
    </linearGradient>
  </defs>
  <rect width="1600" height="900" fill="url(#background-gradient)"/>
  <g aria-hidden="true">
    <circle cx="479.91" cy="473.67" r="2.47" fill="#65d8ff" opacity="0.71"/>
    <circle cx="165.49" cy="631.92" r="3.48" fill="#e7b85a" opacity="0.66"/>
    <circle cx="772.53" cy="554.95" r="1.22" fill="#e7b85a" opacity="0.24"/>
    <circle cx="1593.2" cy="362.12" r="3.39" fill="#65d8ff" opacity="0.56"/>
    <circle cx="1361.8" cy="303.19" r="1.64" fill="#e7b85a" opacity="0.55"/>
    <circle cx="818.96" cy="842.29" r="3.03" fill="#e7b85a" opacity="0.28"/>
    <circle cx="603.53" cy="751.44" r="3.21" fill="#65d8ff" opacity="0.19"/>
    <circle cx="757.92" cy="851.45" r="2.04" fill="#e7b85a" opacity="0.69"/>
    <circle cx="118.33" cy="807.63" r="4.63" fill="#e7b85a" opacity="0.47"/>
    <circle cx="1474.83" cy="323.7" r="3.91" fill="#65d8ff" opacity="0.62"/>
    <circle cx="1220.41" cy="171.13" r="3.16" fill="#e7b85a" opacity="0.29"/>
    <circle cx="1461.2" cy="509.65" r="1.55" fill="#e7b85a" opacity="0.7"/>
    <circle cx="35.53" cy="591" r="4.81" fill="#65d8ff" opacity="0.45"/>
    <circle cx="1441.95" cy="611.53" r="2.48" fill="#e7b85a" opacity="0.4"/>
    <circle cx="1260.35" cy="324.44" r="1.52" fill="#e7b85a" opacity="0.3"/>
    <circle cx="1267.77" cy="238.44" r="1.77" fill="#65d8ff" opacity="0.27"/>
    <circle cx="986.23" cy="763.06" r="2.3" fill="#e7b85a" opacity="0.67"/>
    <circle cx="1552.07" cy="223.45" r="2.73" fill="#e7b85a" opacity="0.72"/>
    <circle cx="964.24" cy="398.91" r="4.19" fill="#65d8ff" opacity="0.26"/>
    <circle cx="214.82" cy="354.83" r="2.58" fill="#e7b85a" opacity="0.38"/>
    <circle cx="1596.89" cy="213.88" r="3.57" fill="#e7b85a" opacity="0.29"/>
    <circle cx="70.11" cy="125.14" r="4.14" fill="#65d8ff" opacity="0.66"/>
    <circle cx="1479.55" cy="248.12" r="2.75" fill="#e7b85a" opacity="0.19"/>
    <circle cx="828.21" cy="744.33" r="3.5" fill="#e7b85a" opacity="0.29"/>
    <circle cx="787.47" cy="464.34" r="1.28" fill="#65d8ff" opacity="0.6"/>
    <circle cx="1303.61" cy="650.77" r="1.39" fill="#e7b85a" opacity="0.48"/>
    <circle cx="75.88" cy="449.14" r="1.59" fill="#e7b85a" opacity="0.31"/>
    <circle cx="1524.27" cy="874.16" r="2.96" fill="#65d8ff" opacity="0.23"/>
    <circle cx="1040.01" cy="244.74" r="1.44" fill="#e7b85a" opacity="0.48"/>
    <circle cx="1236.72" cy="370.85" r="3.14" fill="#e7b85a" opacity="0.49"/>
    <circle cx="1077.33" cy="131.81" r="4.38" fill="#65d8ff" opacity="0.46"/>
    <circle cx="857.97" cy="313.39" r="1.09" fill="#e7b85a" opacity="0.5"/>
    <circle cx="432.63" cy="828.71" r="1.54" fill="#e7b85a" opacity="0.34"/>
    <circle cx="618.8" cy="444.41" r="1.18" fill="#65d8ff" opacity="0.63"/>
    <circle cx="567.02" cy="244.35" r="4.8" fill="#e7b85a" opacity="0.49"/>
    <circle cx="208.2" cy="84.77" r="3.61" fill="#e7b85a" opacity="0.63"/>
    <circle cx="969.62" cy="659.99" r="3.8" fill="#65d8ff" opacity="0.24"/>
    <circle cx="182.61" cy="568.46" r="1.44" fill="#e7b85a" opacity="0.46"/>
    <circle cx="486.78" cy="150.12" r="3.35" fill="#e7b85a" opacity="0.24"/>
    <circle cx="587.45" cy="468.78" r="4.59" fill="#65d8ff" opacity="0.67"/>
    <circle cx="159.75" cy="161.85" r="4.26" fill="#e7b85a" opacity="0.53"/>
    <circle cx="603.67" cy="580" r="2.99" fill="#e7b85a" opacity="0.3"/>
    <circle cx="1267.21" cy="5.03" r="1.87" fill="#65d8ff" opacity="0.71"/>
    <circle cx="504.99" cy="86.69" r="2.25" fill="#e7b85a" opacity="0.38"/>
  </g>
  <g aria-hidden="true" opacity="0.74">
    <rect x="40.5" y="40.5" width="1519" height="819" rx="8.91" fill="none" stroke="#65d8ff" stroke-width="2" opacity="0.32" transform="rotate(9 800 450)"/>
    <rect x="81" y="81" width="1438" height="738" rx="17.82" fill="none" stroke="#e7b85a" stroke-width="2.6" opacity="0.3" transform="rotate(17 800 450)"/>
    <rect x="121.5" y="121.5" width="1357" height="657" rx="26.73" fill="none" stroke="#65d8ff" stroke-width="3.2" opacity="0.28" transform="rotate(25 800 450)"/>
    <rect x="162" y="162" width="1276" height="576" rx="35.64" fill="none" stroke="#e7b85a" stroke-width="3.8" opacity="0.26" transform="rotate(33 800 450)"/>
    <rect x="202.5" y="202.5" width="1195" height="495" rx="44.55" fill="none" stroke="#65d8ff" stroke-width="4.4" opacity="0.24" transform="rotate(41 800 450)"/>
    <rect x="243" y="243" width="1114" height="414" rx="53.46" fill="none" stroke="#e7b85a" stroke-width="5" opacity="0.22" transform="rotate(49 800 450)"/>
    <rect x="283.5" y="283.5" width="1033" height="333" rx="62.37" fill="none" stroke="#65d8ff" stroke-width="5.6" opacity="0.2" transform="rotate(57 800 450)"/>
    <rect x="324" y="324" width="952" height="252" rx="71.28" fill="none" stroke="#e7b85a" stroke-width="6.2" opacity="0.18" transform="rotate(65 800 450)"/>
    <rect x="364.5" y="364.5" width="871" height="171" rx="80.19" fill="none" stroke="#65d8ff" stroke-width="6.8" opacity="0.16" transform="rotate(73 800 450)"/>
  </g>
  <g aria-hidden="true">
    <circle cx="937.19" cy="314.57" r="81" fill="url(#core-gradient)" opacity="0.86"/>
    <circle cx="937.19" cy="314.57" r="117.45" fill="none" stroke="#e7b85a" stroke-width="4" opacity="0.38"/>
    <polygon points="0,900 0,504 177.78,309.44 355.56,502.13 533.33,334.39 711.11,404.15 888.89,496.16 1066.67,377.88 1244.44,482.05 1422.22,463.3 1600,504 1600,900" fill="#3d2d22" opacity="0.94"/>
    <path d="M 0 504 L 1600 504" stroke="#e7b85a" stroke-width="5" opacity="0.48"/>
  </g>
  <rect y="522" width="1600" height="378" fill="url(#caption-gradient)"/>
  <g font-family="Inter, ui-sans-serif, system-ui, sans-serif">
    <text x="128" y="624" fill="#e7b85a" font-size="25" font-weight="800" letter-spacing="6">ORIGINAL Tactics STAGE</text>
    <text fill="#ffffff" font-size="72" font-weight="900" letter-spacing="-1">
      <tspan x="128" y="666">Crown Foundry</tspan>
    </text>
    <text x="128" y="765.76" fill="#dce8f5" font-size="24" font-weight="650" letter-spacing="2">The Aether Crown · CONTROL</text>
    <rect x="128" y="791.76" width="384" height="7" rx="3" fill="#65d8ff"/>
  </g>
</svg>
