<?xml version="1.0" encoding="UTF-8"?>
<svg xmlns="http://www.w3.org/2000/svg" viewBox="0 0 1600 900" width="1600" height="900" role="img" aria-labelledby="visual-title visual-description" focusable="false" data-original-visual="true" data-kind="backdrop">
  <title id="visual-title">The Drowned Testament</title>
  <desc id="visual-description">Original environment artwork for the world The Drowned Testament.</desc>
  <defs>
    <linearGradient id="background-gradient" x1="0" y1="0" x2="1" y2="1">
      <stop offset="0%" stop-color="#071b24"/>
      <stop offset="56%" stop-color="#010304"/>
      <stop offset="100%" stop-color="#18343b"/>
    </linearGradient>
    <radialGradient id="core-gradient" cx="50%" cy="45%" r="58%">
      <stop offset="0%" stop-color="#ffffff" stop-opacity="0.92"/>
      <stop offset="36%" stop-color="#70d6ff" stop-opacity="0.82"/>
      <stop offset="100%" stop-color="#c77dff" stop-opacity="0.08"/>
    </radialGradient>
    <linearGradient id="subject-gradient" x1="0" y1="0" x2="1" y2="1">
      <stop offset="0%" stop-color="#c77dff"/>
      <stop offset="100%" stop-color="#70d6ff"/>
    </linearGradient>
    <linearGradient id="caption-gradient" x1="0" y1="0" x2="0" y2="1">
      <stop offset="0%" stop-color="#010304" stop-opacity="0"/>
      <stop offset="34%" stop-color="#010304" stop-opacity="0.82"/>
      <stop offset="100%" stop-color="#010304"/>
    </linearGradient>
  </defs>
  <rect width="1600" height="900" fill="url(#background-gradient)"/>
  <g aria-hidden="true">
    <circle cx="195.54" cy="181.56" r="3.09" fill="#c77dff" opacity="0.72"/>
    <circle cx="420.82" cy="322.03" r="1.13" fill="#70d6ff" opacity="0.72"/>
    <circle cx="535.01" cy="703.39" r="3.48" fill="#70d6ff" opacity="0.58"/>
    <circle cx="679.64" cy="329.18" r="2.77" fill="#c77dff" opacity="0.61"/>
    <circle cx="928.18" cy="352.65" r="2.32" fill="#70d6ff" opacity="0.44"/>
    <circle cx="327.16" cy="682.62" r="2.37" fill="#70d6ff" opacity="0.69"/>
    <circle cx="1048.17" cy="16.32" r="3.98" fill="#c77dff" opacity="0.19"/>
    <circle cx="770.4" cy="821.04" r="1.79" fill="#70d6ff" opacity="0.6"/>
    <circle cx="664.57" cy="163.55" r="1.29" fill="#70d6ff" opacity="0.2"/>
    <circle cx="409.6" cy="275.24" r="2.7" fill="#c77dff" opacity="0.57"/>
    <circle cx="182.74" cy="21.52" r="1.46" fill="#70d6ff" opacity="0.64"/>
    <circle cx="1096.25" cy="555.76" r="2.02" fill="#70d6ff" opacity="0.5"/>
    <circle cx="1092.87" cy="769.31" r="1.89" fill="#c77dff" opacity="0.46"/>
    <circle cx="808.44" cy="604.53" r="1.35" fill="#70d6ff" opacity="0.32"/>
    <circle cx="250.9" cy="76.05" r="1.45" fill="#70d6ff" opacity="0.25"/>
    <circle cx="736.24" cy="67.16" r="2.07" fill="#c77dff" opacity="0.2"/>
    <circle cx="234.09" cy="12.74" r="2.41" fill="#70d6ff" opacity="0.25"/>
    <circle cx="471.29" cy="153.23" r="3.09" fill="#70d6ff" opacity="0.54"/>
    <circle cx="1107.44" cy="66.78" r="4.54" fill="#c77dff" opacity="0.4"/>
    <circle cx="344.29" cy="179.45" r="1.89" fill="#70d6ff" opacity="0.62"/>
    <circle cx="1227.53" cy="705.07" r="3.56" fill="#70d6ff" opacity="0.39"/>
    <circle cx="679.95" cy="225.13" r="4.68" fill="#c77dff" opacity="0.71"/>
    <circle cx="1174.64" cy="287.61" r="4.07" fill="#70d6ff" opacity="0.71"/>
    <circle cx="978.46" cy="500.37" r="3.85" fill="#70d6ff" opacity="0.68"/>
    <circle cx="1048.76" cy="877.54" r="1.78" fill="#c77dff" opacity="0.44"/>
    <circle cx="688.5" cy="573.93" r="1.46" fill="#70d6ff" opacity="0.61"/>
    <circle cx="1206.31" cy="133" r="1.11" fill="#70d6ff" opacity="0.48"/>
    <circle cx="87.31" cy="787.72" r="4.7" fill="#c77dff" opacity="0.5"/>
    <circle cx="810.37" cy="666.54" r="1.57" fill="#70d6ff" opacity="0.47"/>
    <circle cx="611.79" cy="719.14" r="2.7" fill="#70d6ff" opacity="0.37"/>
    <circle cx="930.61" cy="541.3" r="1.3" fill="#c77dff" opacity="0.49"/>
    <circle cx="1477.39" cy="348.13" r="4.27" fill="#70d6ff" opacity="0.63"/>
    <circle cx="532.76" cy="529.51" r="1.37" fill="#70d6ff" opacity="0.51"/>
    <circle cx="942.27" cy="176.73" r="4.08" fill="#c77dff" opacity="0.5"/>
    <circle cx="213.96" cy="457.81" r="1.3" fill="#70d6ff" opacity="0.34"/>
    <circle cx="1315.56" cy="379.89" r="3.1" fill="#70d6ff" opacity="0.22"/>
    <circle cx="868.81" cy="281.61" r="4.68" fill="#c77dff" opacity="0.35"/>
    <circle cx="931.1" cy="247.82" r="2.63" fill="#70d6ff" opacity="0.73"/>
    <circle cx="386.32" cy="446.27" r="4.61" fill="#70d6ff" opacity="0.58"/>
    <circle cx="1562.14" cy="322.7" r="2.98" fill="#c77dff" opacity="0.65"/>
    <circle cx="218.34" cy="385.14" r="3.74" fill="#70d6ff" opacity="0.46"/>
    <circle cx="1114.48" cy="774.33" r="4.42" fill="#70d6ff" opacity="0.42"/>
    <circle cx="609.1" cy="441.57" r="3.7" fill="#c77dff" opacity="0.68"/>
    <circle cx="1278.82" cy="872.02" r="2.56" fill="#70d6ff" opacity="0.7"/>
  </g>
  <g aria-hidden="true" opacity="0.74">
    <path d="M 0 -90 L 41.06 990" stroke="#c77dff" stroke-width="5.19" opacity="0.21"/>
    <path d="M 133.33 -90 L -4.45 990" stroke="#70d6ff" stroke-width="9.56" opacity="0.29"/>
    <path d="M 266.67 -90 L 314.81 990" stroke="#70d6ff" stroke-width="4.38" opacity="0.26"/>
    <path d="M 400 -90 L 357.41 990" stroke="#c77dff" stroke-width="5.45" opacity="0.27"/>
    <path d="M 533.33 -90 L 573.13 990" stroke="#70d6ff" stroke-width="7.75" opacity="0.27"/>
    <path d="M 666.67 -90 L 727.92 990" stroke="#70d6ff" stroke-width="8.72" opacity="0.21"/>
    <path d="M 800 -90 L 854.62 990" stroke="#c77dff" stroke-width="6.47" opacity="0.12"/>
    <path d="M 933.33 -90 L 816.47 990" stroke="#70d6ff" stroke-width="2.09" opacity="0.13"/>
    <path d="M 1066.67 -90 L 1109.44 990" stroke="#70d6ff" stroke-width="4.27" opacity="0.13"/>
    <path d="M 1200 -90 L 1072.08 990" stroke="#c77dff" stroke-width="9.89" opacity="0.33"/>
    <path d="M 1333.33 -90 L 1285.22 990" stroke="#70d6ff" stroke-width="7.51" opacity="0.35"/>
    <path d="M 1466.67 -90 L 1500.57 990" stroke="#70d6ff" stroke-width="7.6" opacity="0.23"/>
    <path d="M 1600 -90 L 1496.64 990" stroke="#c77dff" stroke-width="9.03" opacity="0.32"/>
  </g>
  <g aria-hidden="true">
    <circle cx="758.04" cy="279.33" r="117" fill="url(#core-gradient)" opacity="0.86"/>
    <circle cx="758.04" cy="279.33" r="169.65" fill="none" stroke="#70d6ff" stroke-width="4" opacity="0.38"/>
    <polygon points="0,900 0,558 177.78,530.64 355.56,473.64 533.33,551.77 711.11,530.22 888.89,455.76 1066.67,527.89 1244.44,516.43 1422.22,499.21 1600,558 1600,900" fill="#18343b" opacity="0.94"/>
    <path d="M 0 558 L 1600 558" stroke="#70d6ff" stroke-width="3" opacity="0.48"/>
  </g>
  <rect y="522" width="1600" height="378" fill="url(#caption-gradient)"/>
  <g font-family="Inter, ui-sans-serif, system-ui, sans-serif">
    <text x="128" y="624" fill="#70d6ff" font-size="25" font-weight="800" letter-spacing="6">ORIGINAL WORLD</text>
    <text fill="#ffffff" font-size="72" font-weight="900" letter-spacing="-1">
      <tspan x="128" y="666">The Drowned Testament</tspan>
    </text>
    <text x="128" y="765.76" fill="#dce8f5" font-size="24" font-weight="650" letter-spacing="2">MULTIVERSE BACKDROP</text>
    <rect x="128" y="791.76" width="384" height="7" rx="3" fill="#c77dff"/>
  </g>
</svg>
